<svg id="Layer_1" data-name="Layer 1" xmlns="http://www.w3.org/2000/svg" xmlns:xlink="http://www.w3.org/1999/xlink" viewBox="0 0 1020.29 102.52"><defs><style>.cls-1,.cls-3{fill:none;}.cls-2{fill:#545595;}.cls-3{stroke:#545595;stroke-miterlimit:10;}.cls-4{fill:#020202;}.cls-5{clip-path:url(#clip-path);}.cls-6{fill:#323031;}.cls-7{fill:#333133;}.cls-8{fill:#353435;}.cls-9{fill:#373537;}.cls-10{fill:#383638;}.cls-11{fill:#393839;}.cls-12{fill:#3a393a;}.cls-13{fill:#3b3a3c;}.cls-14{fill:#3c3b3d;}.cls-15{fill:#3d3c3e;}.cls-16{fill:#3e3e3f;}.cls-17{fill:#3f3f40;}.cls-18{fill:#404041;}.cls-19{fill:#414142;}.cls-20{fill:#424244;}.cls-21{fill:#434345;}.cls-22{fill:#444446;}.cls-23{fill:#454547;}.cls-24{fill:#464648;}.cls-25{fill:#474749;}.cls-26{fill:#48484a;}.cls-27{fill:#49494b;}.cls-28{fill:#4a4a4c;}.cls-29{fill:#4b4b4d;}.cls-30{fill:#4c4c4e;}.cls-31{fill:#4d4d4f;}.cls-32{fill:#4d4e50;}.cls-33{fill:#4e4f51;}.cls-34{fill:#4f5052;}.cls-35{fill:#505153;}.cls-36{fill:#515254;}.cls-37{fill:#525255;}.cls-38{fill:#535355;}.cls-39{fill:#545456;}.cls-40{fill:#555557;}.cls-41{fill:#555658;}.cls-42{fill:#565759;}.cls-43{fill:#57585a;}.cls-44{fill:#58595b;}.cls-45{fill:#595a5c;}.cls-46{fill:#5a5b5d;}.cls-47{fill:#5b5c5e;}.cls-48{fill:#5c5c5f;}.cls-49{fill:#5c5d60;}.cls-50{fill:#5d5e60;}.cls-51{fill:#5e5f61;}.cls-52{fill:#5f6062;}.cls-53{fill:#606163;}.cls-54{fill:#616264;}.cls-55{fill:#616365;}.cls-56{fill:#626366;}.cls-57{fill:#636467;}.cls-58{fill:#646567;}.cls-59{fill:#656668;}.cls-60{fill:#666769;}.cls-61{fill:#66686a;}.cls-62{fill:#67686b;}.cls-63{fill:#68696c;}.cls-64{fill:#696a6c;}.cls-65{fill:#6a6b6d;}.cls-66{fill:#6a6c6e;}.cls-67{fill:#6b6c6f;}.cls-68{fill:#6c6d70;}.cls-69{fill:#6d6e70;}.cls-70{fill:#6d6f71;}.cls-71{fill:#6e7072;}.cls-72{fill:#6f7073;}.cls-73{fill:#707174;}.cls-74{fill:#717275;}.cls-75{fill:#717375;}.cls-76{fill:#727476;}.cls-77{fill:#737477;}.cls-78{fill:#747578;}.cls-79{fill:#747678;}.cls-80{fill:#757779;}.cls-81{fill:#76777a;}.cls-82{fill:#77787b;}.cls-83{fill:#77797c;}.cls-84{fill:#787a7c;}.cls-85{fill:#797b7d;}.cls-86{fill:#7a7b7e;}.cls-87{fill:#7a7c7f;}.cls-88{fill:#7b7d7f;}.cls-89{fill:#7c7e80;}.cls-90{fill:#7d7e80;}.cls-91{fill:#7d7f81;}.cls-92{fill:#7e8081;}.cls-93{fill:#7f8082;}.cls-94{fill:#808083;}.cls-95{fill:#808184;}.cls-96{fill:#808284;}.cls-97{fill:#818385;}.cls-98{fill:#818386;}.cls-99{fill:#828487;}.cls-100{fill:#838587;}.cls-101{fill:#848688;}.cls-102{fill:#848689;}.cls-103{fill:#85878a;}.cls-104{fill:#86888a;}.cls-105{fill:#87898b;}.cls-106{fill:#87898c;}.cls-107{fill:#888a8d;}.cls-108{fill:#898b8d;}.cls-109{fill:#8a8c8e;}.cls-110{fill:#8a8c8f;}.cls-111{fill:#8b8d90;}.cls-112{fill:#8c8e91;}.cls-113{fill:#8d8f91;}.cls-114{fill:#8d8f92;}.cls-115{fill:#8e9093;}.cls-116{fill:#8f9194;}.cls-117{fill:#909294;}.cls-118{fill:#909295;}.cls-119{fill:#919396;}.cls-120{fill:#929497;}.cls-121{fill:#939597;}.cls-122{fill:#939598;}.cls-123{fill:#949699;}.cls-124{fill:#95979a;}.cls-125{fill:#96989a;}.cls-126{fill:#96999b;}.cls-127{fill:#97999c;}.cls-128{fill:#999b9d;}.cls-129{fill:#9a9c9e;}.cls-130{fill:#9a9c9f;}.cls-131{fill:#9b9da0;}.cls-132{fill:#9c9ea1;}.cls-133{fill:#9d9fa1;}.cls-134{fill:#9da0a2;}.cls-135{fill:#9ea0a3;}.cls-136{fill:#9fa1a4;}.cls-137{fill:#a0a2a4;}.cls-138{fill:#a1a3a5;}.cls-139{fill:#a1a3a6;}.cls-140{fill:#a2a4a7;}.cls-141{fill:#a3a5a8;}.cls-142{fill:#a4a6a8;}.cls-143{fill:#a4a7a9;}.cls-144{fill:#a5a7aa;}.cls-145{fill:#a6a8ab;}.cls-146{fill:#a7a9ac;}.cls-147{fill:#a8aaac;}.cls-148{fill:#a8abad;}.cls-149{fill:#a9abae;}.cls-150{fill:#aaacaf;}.cls-151{fill:#abadaf;}.cls-152{fill:#acaeb0;}.cls-153{fill:#adafb1;}.cls-154{fill:#adafb2;}.cls-155{fill:#aeb0b3;}.cls-156{fill:#afb1b3;}.cls-157{fill:#b0b2b4;}.cls-158{fill:#b1b3b5;}.cls-159{fill:#b1b3b6;}.cls-160{fill:#b2b4b7;}.cls-161{fill:#b3b5b7;}.cls-162{fill:#b4b6b8;}.cls-163{fill:#b5b7b9;}.cls-164{fill:#b6b8ba;}.cls-165{fill:#b6b8bb;}.cls-166{fill:#b7b9bb;}.cls-167{fill:#b8babc;}.cls-168{fill:#b9bbbd;}.cls-169{fill:#babcbe;}.cls-170{fill:#bbbcbf;}.cls-171{fill:#bbbdbf;}.cls-172{fill:#bcbec0;}.cls-173{fill:#bdbfc1;}.cls-174{fill:#bec0c2;}.cls-175{fill:#bfc1c3;}.cls-176{fill:#c0c1c3;}.cls-177{fill:#c0c2c4;}.cls-178{fill:#c1c3c5;}.cls-179{fill:#c2c4c6;}.cls-180{fill:#c3c5c7;}.cls-181{fill:#c4c5c7;}.cls-182{fill:#c4c6c8;}.cls-183{fill:#c5c7c9;}.cls-184{fill:#c6c8ca;}.cls-185{fill:#c7c9cb;}.cls-186{fill:#c8cacb;}.cls-187{fill:#c9cacc;}.cls-188{fill:#cacbcd;}.cls-189{fill:#caccce;}.cls-190{fill:#cbcdcf;}.cls-191{fill:#cccecf;}.cls-192{fill:#cdced0;}.cls-193{fill:#cecfd1;}.cls-194{fill:#cfd0d2;}.cls-195{fill:#cfd1d2;}.cls-196{fill:#d0d2d3;}.cls-197{fill:#d1d2d4;}.cls-198{fill:#d2d3d5;}.cls-199{fill:#d3d4d6;}.cls-200{fill:#d4d5d6;}.cls-201{fill:#d4d6d7;}.cls-202{fill:#d5d6d8;}.cls-203{fill:#d6d7d9;}.cls-204{fill:#d7d8da;}.cls-205{fill:#d8d9da;}.cls-206{fill:#d8dadb;}.cls-207{fill:#d9dbdc;}.cls-208{fill:#dadbdd;}.cls-209{fill:#dbdcdd;}.cls-210{fill:#dcddde;}.cls-211{fill:#dddedf;}.cls-212{fill:#dddfe0;}.cls-213{fill:#dedfe1;}.cls-214{fill:#dfe0e1;}.cls-215{fill:#e0e1e2;}.cls-216{fill:#e1e2e3;}.cls-217{fill:#e2e3e4;}.cls-218{fill:#e3e4e5;}.cls-219{fill:#e4e5e6;}.cls-220{fill:#e5e6e7;}.cls-221{fill:#e6e7e8;}.cls-222{fill:#e7e7e8;}.cls-223{fill:#e8e8e9;}.cls-224{fill:#e8e9ea;}.cls-225{fill:#e9eaeb;}.cls-226{fill:#eaebec;}.cls-227{fill:#ebecec;}.cls-228{fill:#ececed;}.cls-229{fill:#ededee;}.cls-230{fill:#edeeef;}.cls-231{fill:#eeefef;}.cls-232{fill:#eff0f0;}.cls-233{fill:#f0f0f1;}.cls-234{fill:#f1f1f2;}.cls-235{fill:#f2f2f2;}.cls-236{fill:#f2f3f3;}.cls-237{fill:#f3f4f4;}.cls-238{fill:#f4f5f5;}.cls-239{fill:#f5f5f6;}.cls-240{fill:#f6f6f7;}.cls-241{fill:#f7f7f8;}.cls-242{fill:#f8f8f9;}.cls-243{fill:#f9fafa;}.cls-244{fill:#fbfbfb;}.cls-245{fill:#fcfcfc;}.cls-246{fill:#fff;}.cls-247{fill:#989a9d;}.cls-248{fill:#343334;}.cls-249{fill:#312f30;}.cls-250{fill:#302d2f;}.cls-251{fill:#2e2c2d;}.cls-252{fill:#2d2b2c;}.cls-253{fill:#2c292a;}.cls-254{fill:#2b2829;}.cls-255{fill:#292627;}.cls-256{fill:#282526;}.cls-257{fill:#272425;}.cls-258{fill:#262223;}.cls-259{fill:#242122;}.cls-260{fill:#231f20;}.cls-261{fill:#050505;}.cls-262{fill:#f2f1ed;}.cls-263{fill:#565653;}.cls-264{fill:#070707;}</style><clipPath id="clip-path"><path class="cls-1" d="M503.55,36.29C504.11,33.5,504,20,510.68,8c1,1.63,5.79,7.46,7,28.67,2.51-2,8.78-10.35,19.67-12.68-.47,2.24-2.76,12.39-11.62,19.44-1.45-.13,18.45,1.5,28.21,7.9a57.41,57.41,0,0,1-28.32,6.79c1.75,2,9.76,9.38,12.08,20.27-1.48-.28-13.15-3.91-19.79-11.85-.18,3.44-.23,18.9-7.21,27.85-1.31-2.41-7.54-14.28-7-28a44.29,44.29,0,0,1-19.71,12c.47-2,5-13.51,12.21-19.44-2.33-.18-15.84-.21-28.68-7.62a60.45,60.45,0,0,1,28.56-7.07c-1-1.21-11.18-12.11-12.21-20.38C485.65,24.4,494.88,25.23,503.55,36.29Z"/></clipPath></defs><path class="cls-2" d="M568.68,53.64s-1.07-2.89,4-2.46c4.82-.22,6.54,2.25,20.15-6.75,5.46-3.11,22.71-14.79,37-12.43,2.79.53,13,2.68,12,11.68,1.71-1.4,12.44-6,17.68,3.1,1,1.4,4.93,15.22-10.29,17.36-2.68.54-14.35,2-30.21-2.57-6.22-2.14-12.22-5-17.68-5.89-5.68-.75-12.32-1.4-16.93.32-1.5.43-3-1,1.18-2.68a31.34,31.34,0,0,1,17.25.64c5.36,1.5,19.39,7.18,25.29,7.82s15.64,2.15,24-.59c3.32-.85,8-6.09,5.34-12.44-1.18-1.92-2.44-4.54-9.84-4.43-2.67.54-4.55,1.85-5.16,3.72a4.82,4.82,0,0,0,.72,2.77c.88.79,2,2.56.94,3.43-1,1.12-4.64-1-4.85-4.67-1.72,2-11.57,7.29-17.25,1.82-1.5-1.28-2.57-5.89-.32-8.78,1.18-1.4,4.6-5.47,6.1-3.22.53.82-.52,2-1.41,2.87-.55.52-2.27,2.73-2.39,3.83-.23,2.17,1.29,7.77,10.81,3.54,1.88-.83,3.4-2.25,3.82-6.27-.43-2.68-2.25-8.58-11-8.47-3.86.11-9-1.93-31.29,11.57-5.74,3-10.06,6.74-14.39,7.47C575.32,55,571.56,54.91,568.68,53.64Z"/><path class="cls-2" d="M743.11,51.93l-51.22-5.15s-8.46,5-12.43,5.9c-5.14,1.71-11-2.2-11.21-6.42.15-4.83,3.46-5.78,6.29-6.23,5.93-.74,7.29,1.55,7.5,3.75-.54,5.47-4.4,3.75-6.54,2.15s-2.57,1.5-.21,3.1c7.92,4.29,10-3.09,9.53-5.78-1.61-9.11-13-7.47-17.17-3.9-8.49,7.43.46,13.54,3.67,14.93,0,0-5.68,3.33-6.64,5.68-4.07,8.63,5.94,11.09,10.71,10.66,10.77-1.07,9.38-7.55,8.09-10-1.6-2.68-4.77-2.47-7.23-1.72s-3,3.75.48,2.41c2-.64,2.83-.14,3.75.7,1.23,1.77.7,3.32-2.09,4.61-9.48,2.46-10.71-1.61-11-3.86.21-4.61,4-5.79,6.85-7,8.9-2.89,17.68,5.36,17.68,5.36L743,57l277.29-.64V52.46Zm-50.36,7.18-4.82-4,42.64.75Zm-3.86-6.86,4.5-3.43,37.18,3.43Z"/><polygon class="cls-3" points="688.89 52.25 730.57 52.25 693.39 48.82 688.89 52.25"/><polygon class="cls-3" points="692.75 59.11 730.57 55.89 687.93 55.14 692.75 59.11"/><path class="cls-2" d="M451.61,53.64s1.07-2.89-4-2.46c-4.82-.22-6.53,2.25-20.14-6.75-5.46-3.11-22.71-14.79-37-12.43-2.79.53-13,2.68-12,11.68-1.72-1.4-12.45-6-17.68,3.1-1,1.4-4.93,15.22,10.28,17.36,2.68.54,14.36,2,30.22-2.57,6.21-2.14,12.21-5,17.68-5.89,5.67-.75,12.32-1.4,16.92.32,1.5.43,3-1-1.17-2.68a31.35,31.35,0,0,0-17.25.64c-5.36,1.5-19.4,7.18-25.29,7.82s-15.64,2.15-24-.59c-3.32-.85-8-6.09-5.33-12.44,1.18-1.92,2.44-4.54,9.83-4.43,2.68.54,4.56,1.85,5.16,3.72a4.82,4.82,0,0,1-.71,2.77c-.89.79-2,2.56-.94,3.43,1,1.12,4.63-1,4.85-4.67,1.71,2,11.57,7.29,17.25,1.82,1.5-1.28,2.57-5.89.32-8.78-1.18-1.4-4.61-5.47-6.11-3.22-.52.82.52,2,1.41,2.87.56.52,2.28,2.73,2.4,3.83.22,2.17-1.29,7.77-10.81,3.54-1.88-.83-3.41-2.25-3.82-6.27.43-2.68,2.25-8.58,11-8.47,3.85.11,9-1.93,31.28,11.57,5.75,3,10.06,6.74,14.39,7.47C445,55,448.72,54.91,451.61,53.64Z"/><path class="cls-2" d="M0,52.46v3.86L277.29,57l51.1,4.18s8.79-8.25,17.68-5.36c2.89,1.18,6.64,2.36,6.86,7-.32,2.25-1.55,6.32-11,3.86-2.78-1.29-3.32-2.84-2.09-4.61.93-.84,1.77-1.34,3.75-.7,3.43,1.34,2.95-1.55.49-2.41s-5.63-1-7.24,1.72c-1.28,2.46-2.68,8.94,8.09,10,4.77.43,14.79-2,10.72-10.66-1-2.35-6.65-5.68-6.65-5.68,3.22-1.39,12.16-7.5,3.67-14.93-4.21-3.57-15.56-5.21-17.17,3.9C335,45.94,337.07,53.32,345,49c2.36-1.6,1.93-4.71-.21-3.1s-6,3.32-6.54-2.15c.2-2.2,1.56-4.49,7.5-3.75,2.83.45,6.13,1.4,6.28,6.23-.2,4.22-6.07,8.13-11.21,6.42-4-.86-12.43-5.9-12.43-5.9l-51.21,5.15Zm289.71,3.43,42.65-.75-4.82,4Zm0-3.64,37.18-3.43,4.5,3.43Z"/><polygon class="cls-3" points="331.39 52.25 289.71 52.25 326.89 48.82 331.39 52.25"/><polygon class="cls-3" points="327.54 59.11 289.71 55.89 332.36 55.14 327.54 59.11"/><path class="cls-4" d="M510.65,102.52l-.38-.7-.53-.94a71.6,71.6,0,0,1-9.25-27.19c-1.91,2.14-6.51,6.23-19.77,9.09l-.8.17.18-.8c0-.22.11-.5.18-.83.69-3.34,2.49-12,8.72-19.12a48.81,48.81,0,0,1-8.83-1.73,88.65,88.65,0,0,1-19.85-8.72l-.79-.45.79-.46c.16-.08,14.85-8.38,28.43-10.1-1.87-2.45-7.56-10.63-8.78-20.5l-.1-.81.78.24c.33.11.91.24,1.65.41,4,.9,13,3,18.81,8.8.05-.36.11-.76.16-1.2.64-4.88,1.82-14,9-26.9L510.7,0l.47.75c.12.2.29.46.52.78,2.05,3,7.45,10.89,9.39,27.33l.28-.24c2.93-2.5,6.94-5.93,19.46-8.6l.78-.17-.16.78c-.68,3.25-3.31,14.05-9.5,20.73l.44,0c4.92.61,18,2.21,28.78,9.46l.75.5-.82.4c-.29.14-.65.33-1.12.58A72.86,72.86,0,0,1,532,60.76c2.44,2.75,6.8,8.22,9.52,20.92l.16.77-.77-.14c-.53-.1-12.68-2.44-19.83-9a61.63,61.63,0,0,1-1.67,11,46.61,46.61,0,0,1-8.31,17.51Zm-9.38-31.36.12,1.22a70.48,70.48,0,0,0,9.26,28l.14.25c5.59-7.45,8.73-17,9.35-28.45l.07-1.19.83.85c5.89,6,16.37,8.64,19.33,9.29-2.87-12.75-7.39-17.77-9.59-20.2l-.9-1,1-.1c15.44-1.47,24.64-6.32,28.57-8.4l.34-.18C549.4,44.56,537,43,532.25,42.45l-1.49-.19-1-.17.74-.72c6-5.95,8.85-16.12,9.77-20.16C528.62,23.8,525,26.91,522,29.42l-1,.87-.75.61-.1-1c-1.81-16.84-7.27-24.82-9.33-27.82L510.77,2c-6.71,12.35-7.85,21.05-8.46,25.78-.12.94-.22,1.69-.34,2.29l-.21,1-.69-.78c-5.51-6.19-15-8.34-19-9.26l-.95-.22c1.38,9.22,6.93,17.47,9,19.93l.64.75-1,.11C478,42.9,465,49.52,461.65,51.31c10.44,5.92,20,9.26,28.45,9.93l1.12.09-.75.79c-6.6,7-8.47,16-9.17,19.41v0c13.91-3.13,17.6-7.57,19-9.26l.19-.23Z"/><g class="cls-5"><rect class="cls-6" x="467.53" y="7.97" width="86.39" height="86.39"/><circle class="cls-6" cx="510.72" cy="51.16" r="43.19" transform="matrix(0.92, -0.38, 0.38, 0.92, 19.3, 199.34)"/><circle class="cls-7" cx="510.72" cy="51.16" r="43.19" transform="matrix(0.92, -0.38, 0.38, 0.92, 19.3, 199.34)"/><circle class="cls-8" cx="510.72" cy="51.16" r="43.19" transform="matrix(0.92, -0.38, 0.38, 0.92, 19.3, 199.34)"/><circle class="cls-9" cx="510.72" cy="51.16" r="43.19" transform="matrix(0.92, -0.38, 0.38, 0.92, 19.3, 199.34)"/><circle class="cls-10" cx="510.72" cy="51.16" r="43.19" transform="matrix(0.92, -0.38, 0.38, 0.92, 19.3, 199.34)"/><circle class="cls-11" cx="510.72" cy="51.16" r="43.19" transform="matrix(0.92, -0.38, 0.38, 0.92, 19.3, 199.34)"/><circle class="cls-12" cx="510.72" cy="51.16" r="43.19" transform="matrix(0.92, -0.38, 0.38, 0.92, 19.3, 199.34)"/><circle class="cls-13" cx="510.72" cy="51.16" r="43.19" transform="matrix(0.92, -0.38, 0.38, 0.92, 19.3, 199.34)"/><circle class="cls-14" cx="510.72" cy="51.16" r="43.19" transform="matrix(0.92, -0.38, 0.38, 0.92, 19.3, 199.34)"/><circle class="cls-15" cx="510.72" cy="51.16" r="43.19" transform="matrix(0.92, -0.38, 0.38, 0.92, 19.3, 199.34)"/><circle class="cls-16" cx="510.72" cy="51.16" r="43.19" transform="matrix(0.92, -0.38, 0.38, 0.92, 19.3, 199.34)"/><circle class="cls-17" cx="510.72" cy="51.16" r="43.19" transform="matrix(0.92, -0.38, 0.38, 0.92, 19.3, 199.34)"/><circle class="cls-18" cx="510.72" cy="51.16" r="43.19" transform="matrix(0.92, -0.38, 0.38, 0.92, 19.3, 199.34)"/><circle class="cls-19" cx="510.72" cy="51.16" r="43.19" transform="matrix(0.92, -0.38, 0.38, 0.92, 19.3, 199.34)"/><circle class="cls-20" cx="510.72" cy="51.16" r="43.19" transform="matrix(0.92, -0.38, 0.38, 0.92, 19.3, 199.34)"/><circle class="cls-21" cx="510.72" cy="51.16" r="43.19" transform="matrix(0.92, -0.38, 0.38, 0.92, 19.3, 199.34)"/><circle class="cls-22" cx="510.72" cy="51.16" r="43.19" transform="matrix(0.92, -0.38, 0.38, 0.92, 19.3, 199.34)"/><circle class="cls-23" cx="510.72" cy="51.16" r="43.19" transform="matrix(0.92, -0.38, 0.38, 0.92, 19.3, 199.34)"/><circle class="cls-24" cx="510.72" cy="51.16" r="43.19" transform="matrix(0.92, -0.38, 0.38, 0.92, 19.3, 199.34)"/><circle class="cls-25" cx="510.72" cy="51.16" r="43.19" transform="matrix(0.92, -0.38, 0.38, 0.92, 19.3, 199.34)"/><circle class="cls-26" cx="510.72" cy="51.16" r="43.19" transform="matrix(0.92, -0.38, 0.38, 0.92, 19.3, 199.34)"/><circle class="cls-27" cx="510.72" cy="51.16" r="43.19" transform="matrix(0.92, -0.38, 0.38, 0.92, 19.3, 199.34)"/><circle class="cls-28" cx="510.72" cy="51.16" r="43.19" transform="matrix(0.92, -0.38, 0.38, 0.92, 19.3, 199.34)"/><circle class="cls-29" cx="510.72" cy="51.16" r="43.19" transform="matrix(0.92, -0.38, 0.38, 0.92, 19.3, 199.34)"/><circle class="cls-30" cx="510.72" cy="51.16" r="43.19" transform="matrix(0.92, -0.38, 0.38, 0.92, 19.3, 199.34)"/><circle class="cls-31" cx="510.72" cy="51.16" r="43.19" transform="matrix(0.92, -0.38, 0.38, 0.92, 19.3, 199.34)"/><circle class="cls-32" cx="510.72" cy="51.16" r="43.19" transform="matrix(0.92, -0.38, 0.38, 0.92, 19.3, 199.34)"/><circle class="cls-33" cx="510.72" cy="51.16" r="43.19" transform="matrix(0.92, -0.38, 0.38, 0.92, 19.3, 199.34)"/><circle class="cls-34" cx="510.72" cy="51.16" r="43.19" transform="matrix(0.92, -0.38, 0.38, 0.92, 19.3, 199.34)"/><circle class="cls-35" cx="510.72" cy="51.16" r="43.19" transform="matrix(0.92, -0.38, 0.38, 0.92, 19.3, 199.34)"/><circle class="cls-36" cx="510.72" cy="51.16" r="43.19" transform="matrix(0.92, -0.38, 0.38, 0.92, 19.3, 199.34)"/><circle class="cls-37" cx="510.72" cy="51.16" r="43.19" transform="matrix(0.92, -0.38, 0.38, 0.92, 19.3, 199.34)"/><circle class="cls-38" cx="510.72" cy="51.16" r="43.19" transform="matrix(0.92, -0.38, 0.38, 0.92, 19.3, 199.34)"/><circle class="cls-39" cx="510.72" cy="51.16" r="43.19" transform="matrix(0.92, -0.38, 0.38, 0.92, 19.3, 199.34)"/><circle class="cls-40" cx="510.72" cy="51.16" r="43.19" transform="matrix(0.92, -0.38, 0.38, 0.92, 19.3, 199.34)"/><circle class="cls-41" cx="510.72" cy="51.16" r="43.19" transform="matrix(0.92, -0.38, 0.38, 0.92, 19.3, 199.34)"/><circle class="cls-42" cx="510.72" cy="51.16" r="43.19" transform="matrix(0.92, -0.38, 0.38, 0.92, 19.3, 199.34)"/><circle class="cls-43" cx="510.72" cy="51.16" r="43.19" transform="matrix(0.92, -0.38, 0.38, 0.92, 19.3, 199.34)"/><circle class="cls-44" cx="510.72" cy="51.16" r="43.19" transform="matrix(0.92, -0.38, 0.38, 0.92, 19.3, 199.34)"/><circle class="cls-45" cx="510.72" cy="51.16" r="43.19" transform="matrix(0.92, -0.38, 0.38, 0.92, 19.3, 199.34)"/><circle class="cls-46" cx="510.72" cy="51.16" r="43.19" transform="matrix(0.92, -0.38, 0.38, 0.92, 19.3, 199.34)"/><circle class="cls-47" cx="510.72" cy="51.16" r="43.19" transform="matrix(0.92, -0.38, 0.38, 0.92, 19.3, 199.34)"/><circle class="cls-48" cx="510.72" cy="51.16" r="43.19" transform="matrix(0.92, -0.38, 0.38, 0.92, 19.3, 199.34)"/><circle class="cls-49" cx="510.72" cy="51.16" r="43.19" transform="matrix(0.92, -0.38, 0.38, 0.92, 19.3, 199.34)"/><circle class="cls-50" cx="510.72" cy="51.16" r="43.19" transform="matrix(0.92, -0.38, 0.38, 0.92, 19.3, 199.34)"/><circle class="cls-51" cx="510.72" cy="51.16" r="43.19" transform="matrix(0.92, -0.38, 0.38, 0.92, 19.3, 199.34)"/><circle class="cls-52" cx="510.72" cy="51.16" r="43.19" transform="matrix(0.92, -0.38, 0.38, 0.92, 19.3, 199.34)"/><circle class="cls-53" cx="510.72" cy="51.16" r="43.19" transform="matrix(0.92, -0.38, 0.38, 0.92, 19.3, 199.34)"/><circle class="cls-54" cx="510.72" cy="51.16" r="43.19" transform="matrix(0.92, -0.38, 0.38, 0.92, 19.3, 199.34)"/><circle class="cls-55" cx="510.72" cy="51.16" r="43.19" transform="matrix(0.92, -0.38, 0.38, 0.92, 19.3, 199.34)"/><circle class="cls-56" cx="510.72" cy="51.16" r="43.19" transform="matrix(0.92, -0.38, 0.38, 0.92, 19.3, 199.34)"/><circle class="cls-57" cx="510.72" cy="51.16" r="43.19" transform="matrix(0.92, -0.38, 0.38, 0.92, 19.3, 199.34)"/><circle class="cls-58" cx="510.72" cy="51.16" r="43.19" transform="matrix(0.92, -0.38, 0.38, 0.92, 19.3, 199.34)"/><circle class="cls-59" cx="510.72" cy="51.16" r="43.19" transform="matrix(0.92, -0.38, 0.38, 0.92, 19.3, 199.34)"/><circle class="cls-60" cx="510.72" cy="51.16" r="43.19" transform="matrix(0.92, -0.38, 0.38, 0.92, 19.3, 199.34)"/><circle class="cls-61" cx="510.72" cy="51.16" r="43.19" transform="matrix(0.92, -0.38, 0.38, 0.92, 19.3, 199.34)"/><circle class="cls-62" cx="510.72" cy="51.16" r="43.19" transform="matrix(0.92, -0.38, 0.38, 0.92, 19.3, 199.34)"/><circle class="cls-63" cx="510.72" cy="51.16" r="43.19" transform="matrix(0.92, -0.38, 0.38, 0.92, 19.3, 199.34)"/><circle class="cls-64" cx="510.72" cy="51.16" r="43.19" transform="matrix(0.92, -0.38, 0.38, 0.92, 19.3, 199.34)"/><circle class="cls-65" cx="510.72" cy="51.16" r="43.19" transform="matrix(0.92, -0.38, 0.38, 0.92, 19.3, 199.34)"/><circle class="cls-66" cx="510.72" cy="51.16" r="43.19" transform="matrix(0.92, -0.38, 0.38, 0.92, 19.3, 199.34)"/><circle class="cls-67" cx="510.72" cy="51.16" r="43.19" transform="matrix(0.92, -0.38, 0.38, 0.92, 19.3, 199.34)"/><circle class="cls-68" cx="510.72" cy="51.16" r="43.19" transform="matrix(0.92, -0.38, 0.38, 0.92, 19.3, 199.34)"/><circle class="cls-69" cx="510.72" cy="51.16" r="43.19" transform="matrix(0.92, -0.38, 0.38, 0.92, 19.3, 199.34)"/><circle class="cls-70" cx="510.72" cy="51.16" r="43.19" transform="matrix(0.92, -0.38, 0.38, 0.92, 19.3, 199.34)"/><circle class="cls-71" cx="510.72" cy="51.16" r="43.19" transform="matrix(0.92, -0.38, 0.38, 0.92, 19.3, 199.34)"/><circle class="cls-72" cx="510.72" cy="51.16" r="43.19" transform="matrix(0.92, -0.38, 0.38, 0.92, 19.3, 199.34)"/><circle class="cls-73" cx="510.72" cy="51.16" r="43.19" transform="matrix(0.92, -0.38, 0.38, 0.92, 19.3, 199.34)"/><circle class="cls-74" cx="510.72" cy="51.16" r="43.19" transform="matrix(0.92, -0.38, 0.38, 0.92, 19.3, 199.34)"/><circle class="cls-75" cx="510.72" cy="51.16" r="43.19" transform="matrix(0.92, -0.38, 0.38, 0.92, 19.3, 199.34)"/><circle class="cls-76" cx="510.72" cy="51.16" r="43.19" transform="matrix(0.92, -0.38, 0.38, 0.92, 19.3, 199.34)"/><circle class="cls-77" cx="510.72" cy="51.16" r="43.19" transform="matrix(0.92, -0.38, 0.38, 0.92, 19.3, 199.34)"/><circle class="cls-78" cx="510.72" cy="51.16" r="43.19" transform="matrix(0.92, -0.38, 0.38, 0.92, 19.3, 199.34)"/><circle class="cls-79" cx="510.72" cy="51.16" r="43.19" transform="matrix(0.92, -0.38, 0.38, 0.92, 19.3, 199.34)"/><circle class="cls-80" cx="510.72" cy="51.16" r="43.19" transform="matrix(0.92, -0.38, 0.38, 0.92, 19.3, 199.34)"/><circle class="cls-81" cx="510.72" cy="51.16" r="43.19" transform="matrix(0.92, -0.38, 0.38, 0.92, 19.3, 199.34)"/><circle class="cls-82" cx="510.72" cy="51.16" r="43.19" transform="matrix(0.92, -0.38, 0.38, 0.92, 19.3, 199.34)"/><circle class="cls-83" cx="510.72" cy="51.16" r="43.19" transform="matrix(0.92, -0.38, 0.38, 0.92, 19.3, 199.34)"/><circle class="cls-84" cx="510.72" cy="51.16" r="43.19" transform="matrix(0.92, -0.38, 0.38, 0.92, 19.3, 199.34)"/><circle class="cls-85" cx="510.72" cy="51.16" r="43.19" transform="matrix(0.92, -0.38, 0.38, 0.92, 19.3, 199.34)"/><circle class="cls-86" cx="510.72" cy="51.16" r="43.19" transform="matrix(0.92, -0.38, 0.38, 0.92, 19.3, 199.34)"/><circle class="cls-87" cx="510.72" cy="51.16" r="43.19" transform="matrix(0.92, -0.38, 0.38, 0.92, 19.3, 199.34)"/><circle class="cls-88" cx="510.72" cy="51.16" r="43.19" transform="matrix(0.92, -0.38, 0.38, 0.92, 19.3, 199.34)"/><circle class="cls-89" cx="510.72" cy="51.16" r="43.19" transform="matrix(0.92, -0.38, 0.38, 0.92, 19.3, 199.34)"/><circle class="cls-90" cx="510.72" cy="51.16" r="43.19" transform="matrix(0.92, -0.38, 0.38, 0.92, 19.3, 199.34)"/><circle class="cls-91" cx="510.72" cy="51.16" r="43.19" transform="matrix(0.92, -0.38, 0.38, 0.92, 19.3, 199.34)"/><circle class="cls-92" cx="510.72" cy="51.16" r="43.19" transform="matrix(0.92, -0.38, 0.38, 0.92, 19.3, 199.34)"/><circle class="cls-93" cx="510.72" cy="51.16" r="43.19" transform="matrix(0.92, -0.38, 0.38, 0.92, 19.3, 199.34)"/><circle class="cls-94" cx="510.72" cy="51.16" r="43.19" transform="matrix(0.92, -0.38, 0.38, 0.92, 19.3, 199.34)"/><circle class="cls-95" cx="510.72" cy="51.16" r="43.19" transform="matrix(0.92, -0.38, 0.38, 0.92, 19.3, 199.34)"/><circle class="cls-96" cx="510.72" cy="51.16" r="43.19" transform="matrix(0.92, -0.38, 0.38, 0.92, 19.3, 199.34)"/><circle class="cls-97" cx="510.72" cy="51.16" r="43.19" transform="matrix(0.92, -0.38, 0.38, 0.92, 19.3, 199.34)"/><circle class="cls-98" cx="510.72" cy="51.16" r="43.19" transform="matrix(0.92, -0.38, 0.38, 0.92, 19.3, 199.34)"/><circle class="cls-99" cx="510.72" cy="51.16" r="43.19" transform="matrix(0.92, -0.38, 0.38, 0.92, 19.3, 199.34)"/><circle class="cls-100" cx="510.72" cy="51.16" r="43.19" transform="matrix(0.92, -0.38, 0.38, 0.92, 19.3, 199.34)"/><circle class="cls-101" cx="510.72" cy="51.16" r="43.19" transform="matrix(0.92, -0.38, 0.38, 0.92, 19.3, 199.34)"/><circle class="cls-102" cx="510.72" cy="51.16" r="43.19" transform="matrix(0.92, -0.38, 0.38, 0.92, 19.3, 199.34)"/><circle class="cls-103" cx="510.72" cy="51.16" r="43.19" transform="matrix(0.92, -0.38, 0.38, 0.92, 19.3, 199.34)"/><circle class="cls-104" cx="510.72" cy="51.16" r="43.19" transform="matrix(0.92, -0.38, 0.38, 0.92, 19.3, 199.34)"/><circle class="cls-105" cx="510.72" cy="51.16" r="43.19" transform="matrix(0.92, -0.38, 0.38, 0.92, 19.3, 199.34)"/><circle class="cls-106" cx="510.72" cy="51.16" r="43.19" transform="matrix(0.92, -0.38, 0.38, 0.92, 19.3, 199.34)"/><circle class="cls-107" cx="510.72" cy="51.16" r="43.19" transform="matrix(0.92, -0.38, 0.38, 0.92, 19.3, 199.34)"/><circle class="cls-108" cx="510.72" cy="51.16" r="43.19" transform="matrix(0.92, -0.38, 0.38, 0.92, 19.3, 199.34)"/><circle class="cls-109" cx="510.72" cy="51.16" r="43.19" transform="matrix(0.92, -0.38, 0.38, 0.92, 19.3, 199.34)"/><circle class="cls-110" cx="510.72" cy="51.16" r="43.19" transform="matrix(0.92, -0.38, 0.38, 0.92, 19.3, 199.34)"/><circle class="cls-111" cx="510.72" cy="51.16" r="43.19" transform="matrix(0.92, -0.38, 0.38, 0.92, 19.3, 199.34)"/><circle class="cls-112" cx="510.72" cy="51.16" r="43.19" transform="matrix(0.92, -0.38, 0.38, 0.92, 19.3, 199.34)"/><circle class="cls-113" cx="510.72" cy="51.16" r="43.19" transform="matrix(0.92, -0.38, 0.38, 0.92, 19.3, 199.34)"/><circle class="cls-114" cx="510.72" cy="51.16" r="43.19" transform="matrix(0.92, -0.38, 0.38, 0.92, 19.3, 199.34)"/><circle class="cls-115" cx="510.72" cy="51.16" r="43.19" transform="matrix(0.92, -0.38, 0.38, 0.92, 19.3, 199.34)"/><circle class="cls-116" cx="510.72" cy="51.16" r="43.19" transform="matrix(0.92, -0.38, 0.38, 0.92, 19.3, 199.34)"/><circle class="cls-117" cx="510.72" cy="51.16" r="43.19" transform="matrix(0.92, -0.38, 0.38, 0.92, 19.3, 199.34)"/><circle class="cls-118" cx="510.72" cy="51.16" r="43.19" transform="matrix(0.92, -0.38, 0.38, 0.92, 19.3, 199.34)"/><circle class="cls-119" cx="510.72" cy="51.16" r="43.19" transform="matrix(0.92, -0.38, 0.38, 0.92, 19.3, 199.34)"/><circle class="cls-120" cx="510.72" cy="51.16" r="43.19" transform="matrix(0.92, -0.38, 0.38, 0.92, 19.3, 199.34)"/><circle class="cls-121" cx="510.72" cy="51.16" r="43.19" transform="matrix(0.92, -0.38, 0.38, 0.92, 19.3, 199.34)"/><circle class="cls-122" cx="510.72" cy="51.16" r="43.19" transform="matrix(0.92, -0.38, 0.38, 0.92, 19.3, 199.34)"/><circle class="cls-123" cx="510.72" cy="51.16" r="43.19" transform="matrix(0.92, -0.38, 0.38, 0.92, 19.3, 199.34)"/><circle class="cls-124" cx="510.72" cy="51.16" r="43.19" transform="matrix(0.92, -0.38, 0.38, 0.92, 19.3, 199.34)"/><circle class="cls-125" cx="510.72" cy="51.16" r="43.19" transform="matrix(0.92, -0.38, 0.38, 0.92, 19.3, 199.34)"/><circle class="cls-126" cx="510.72" cy="51.16" r="43.19" transform="matrix(0.92, -0.38, 0.38, 0.92, 19.3, 199.34)"/><circle class="cls-127" cx="510.72" cy="51.16" r="43.19" transform="matrix(0.92, -0.38, 0.38, 0.92, 19.3, 199.34)"/><circle class="cls-128" cx="510.72" cy="51.16" r="43.19" transform="matrix(0.92, -0.38, 0.38, 0.92, 19.3, 199.34)"/><circle class="cls-129" cx="510.72" cy="51.16" r="43.19" transform="matrix(0.92, -0.38, 0.38, 0.92, 19.3, 199.34)"/><circle class="cls-130" cx="510.72" cy="51.16" r="43.19" transform="matrix(0.92, -0.38, 0.38, 0.92, 19.3, 199.34)"/><circle class="cls-131" cx="510.72" cy="51.16" r="43.19" transform="matrix(0.92, -0.38, 0.38, 0.92, 19.3, 199.34)"/><circle class="cls-132" cx="510.72" cy="51.16" r="43.19" transform="matrix(0.92, -0.38, 0.38, 0.92, 19.3, 199.34)"/><circle class="cls-133" cx="510.72" cy="51.16" r="43.19" transform="matrix(0.92, -0.38, 0.38, 0.92, 19.3, 199.34)"/><circle class="cls-134" cx="510.72" cy="51.16" r="43.19" transform="matrix(0.92, -0.38, 0.38, 0.92, 19.3, 199.34)"/><circle class="cls-135" cx="510.72" cy="51.16" r="43.19" transform="matrix(0.92, -0.38, 0.38, 0.92, 19.3, 199.34)"/><circle class="cls-136" cx="510.72" cy="51.16" r="43.19" transform="matrix(0.92, -0.38, 0.38, 0.92, 19.3, 199.34)"/><circle class="cls-137" cx="510.72" cy="51.16" r="43.19" transform="matrix(0.92, -0.38, 0.38, 0.92, 19.3, 199.34)"/><circle class="cls-138" cx="510.72" cy="51.16" r="43.19" transform="matrix(0.92, -0.38, 0.38, 0.92, 19.3, 199.34)"/><circle class="cls-139" cx="510.72" cy="51.16" r="43.19" transform="matrix(0.92, -0.38, 0.38, 0.92, 19.3, 199.34)"/><circle class="cls-140" cx="510.72" cy="51.16" r="43.19" transform="matrix(0.92, -0.38, 0.38, 0.92, 19.3, 199.34)"/><circle class="cls-141" cx="510.72" cy="51.16" r="43.19" transform="matrix(0.92, -0.38, 0.38, 0.92, 19.3, 199.34)"/><circle class="cls-142" cx="510.72" cy="51.16" r="43.19" transform="matrix(0.92, -0.38, 0.38, 0.92, 19.3, 199.34)"/><circle class="cls-143" cx="510.72" cy="51.16" r="43.19" transform="matrix(0.92, -0.38, 0.38, 0.92, 19.3, 199.34)"/><circle class="cls-144" cx="510.72" cy="51.16" r="43.19" transform="matrix(0.92, -0.38, 0.38, 0.92, 19.3, 199.34)"/><circle class="cls-145" cx="510.72" cy="51.16" r="43.19" transform="matrix(0.92, -0.38, 0.38, 0.92, 19.3, 199.34)"/><circle class="cls-146" cx="510.72" cy="51.16" r="43.19" transform="matrix(0.92, -0.38, 0.38, 0.92, 19.3, 199.34)"/><circle class="cls-147" cx="510.72" cy="51.16" r="43.19" transform="matrix(0.92, -0.38, 0.38, 0.92, 19.3, 199.34)"/><circle class="cls-148" cx="510.72" cy="51.16" r="43.19" transform="matrix(0.92, -0.38, 0.38, 0.92, 19.3, 199.34)"/><circle class="cls-149" cx="510.72" cy="51.16" r="43.19" transform="matrix(0.92, -0.38, 0.38, 0.92, 19.3, 199.34)"/><circle class="cls-150" cx="510.72" cy="51.16" r="43.19" transform="matrix(0.92, -0.38, 0.38, 0.92, 19.3, 199.34)"/><circle class="cls-151" cx="510.72" cy="51.16" r="43.19" transform="matrix(0.92, -0.38, 0.38, 0.92, 19.3, 199.34)"/><circle class="cls-152" cx="510.72" cy="51.16" r="43.19" transform="matrix(0.92, -0.38, 0.38, 0.92, 19.3, 199.34)"/><circle class="cls-153" cx="510.72" cy="51.16" r="43.19" transform="matrix(0.92, -0.38, 0.38, 0.92, 19.3, 199.34)"/><circle class="cls-154" cx="510.72" cy="51.16" r="43.19" transform="matrix(0.92, -0.38, 0.38, 0.92, 19.3, 199.34)"/><circle class="cls-155" cx="510.72" cy="51.16" r="43.19" transform="matrix(0.92, -0.38, 0.38, 0.92, 19.3, 199.34)"/><circle class="cls-156" cx="510.72" cy="51.16" r="43.19" transform="matrix(0.92, -0.38, 0.38, 0.92, 19.3, 199.34)"/><circle class="cls-157" cx="510.72" cy="51.16" r="43.19" transform="matrix(0.92, -0.38, 0.38, 0.92, 19.3, 199.34)"/><circle class="cls-158" cx="510.72" cy="51.16" r="43.19" transform="matrix(0.92, -0.38, 0.38, 0.92, 19.3, 199.34)"/><circle class="cls-159" cx="510.72" cy="51.16" r="43.19" transform="matrix(0.92, -0.38, 0.38, 0.92, 19.3, 199.34)"/><circle class="cls-160" cx="510.72" cy="51.16" r="43.19" transform="matrix(0.92, -0.38, 0.38, 0.92, 19.3, 199.34)"/><circle class="cls-161" cx="510.72" cy="51.16" r="43.19" transform="matrix(0.92, -0.38, 0.38, 0.92, 19.3, 199.34)"/><circle class="cls-162" cx="510.72" cy="51.16" r="43.19" transform="matrix(0.92, -0.38, 0.38, 0.92, 19.3, 199.34)"/><circle class="cls-163" cx="510.72" cy="51.16" r="43.19" transform="matrix(0.92, -0.38, 0.38, 0.92, 19.3, 199.34)"/><circle class="cls-164" cx="510.72" cy="51.16" r="43.19" transform="matrix(0.92, -0.38, 0.38, 0.92, 19.3, 199.34)"/><circle class="cls-165" cx="510.72" cy="51.16" r="43.19" transform="matrix(0.92, -0.38, 0.38, 0.92, 19.3, 199.34)"/><circle class="cls-166" cx="510.72" cy="51.16" r="43.19" transform="matrix(0.92, -0.38, 0.38, 0.92, 19.3, 199.34)"/><circle class="cls-167" cx="510.72" cy="51.16" r="43.19" transform="matrix(0.92, -0.38, 0.38, 0.92, 19.3, 199.34)"/><circle class="cls-168" cx="510.72" cy="51.16" r="43.19" transform="matrix(0.92, -0.38, 0.38, 0.92, 19.3, 199.34)"/><circle class="cls-169" cx="510.72" cy="51.16" r="43.19" transform="matrix(0.92, -0.38, 0.38, 0.92, 19.3, 199.34)"/><circle class="cls-170" cx="510.72" cy="51.16" r="43.19" transform="matrix(0.92, -0.38, 0.38, 0.92, 19.3, 199.34)"/><circle class="cls-171" cx="510.72" cy="51.16" r="43.19" transform="matrix(0.92, -0.38, 0.38, 0.92, 19.3, 199.34)"/><circle class="cls-172" cx="510.72" cy="51.16" r="43.19" transform="matrix(0.92, -0.38, 0.38, 0.92, 19.3, 199.34)"/><circle class="cls-173" cx="510.72" cy="51.16" r="43.19" transform="matrix(0.92, -0.38, 0.38, 0.92, 19.3, 199.34)"/><circle class="cls-174" cx="510.72" cy="51.16" r="43.19" transform="matrix(0.92, -0.38, 0.38, 0.92, 19.3, 199.34)"/><circle class="cls-175" cx="510.72" cy="51.16" r="43.19" transform="matrix(0.92, -0.38, 0.38, 0.92, 19.3, 199.34)"/><circle class="cls-176" cx="510.72" cy="51.16" r="43.19" transform="matrix(0.92, -0.38, 0.38, 0.92, 19.3, 199.34)"/><circle class="cls-177" cx="510.72" cy="51.16" r="43.19" transform="matrix(0.92, -0.38, 0.38, 0.92, 19.3, 199.34)"/><circle class="cls-178" cx="510.72" cy="51.16" r="43.19" transform="matrix(0.92, -0.38, 0.38, 0.92, 19.3, 199.34)"/><circle class="cls-179" cx="510.72" cy="51.16" r="43.19" transform="matrix(0.92, -0.38, 0.38, 0.92, 19.3, 199.34)"/><circle class="cls-180" cx="510.72" cy="51.16" r="43.19" transform="matrix(0.92, -0.38, 0.38, 0.92, 19.3, 199.34)"/><circle class="cls-181" cx="510.72" cy="51.16" r="43.19" transform="matrix(0.92, -0.38, 0.38, 0.92, 19.3, 199.34)"/><circle class="cls-182" cx="510.72" cy="51.16" r="43.19" transform="matrix(0.92, -0.38, 0.38, 0.92, 19.3, 199.34)"/><circle class="cls-183" cx="510.72" cy="51.16" r="43.19" transform="matrix(0.92, -0.38, 0.38, 0.92, 19.3, 199.34)"/><circle class="cls-184" cx="510.72" cy="51.16" r="43.19" transform="matrix(0.92, -0.38, 0.38, 0.92, 19.3, 199.34)"/><circle class="cls-185" cx="510.72" cy="51.16" r="43.19" transform="matrix(0.92, -0.38, 0.38, 0.92, 19.3, 199.34)"/><circle class="cls-186" cx="510.72" cy="51.16" r="43.19" transform="matrix(0.92, -0.38, 0.38, 0.92, 19.3, 199.34)"/><circle class="cls-187" cx="510.72" cy="51.16" r="43.19" transform="matrix(0.92, -0.38, 0.38, 0.92, 19.3, 199.34)"/><circle class="cls-188" cx="510.72" cy="51.16" r="43.19" transform="matrix(0.92, -0.38, 0.38, 0.92, 19.3, 199.34)"/><circle class="cls-189" cx="510.72" cy="51.16" r="43.19" transform="matrix(0.92, -0.38, 0.38, 0.92, 19.3, 199.34)"/><circle class="cls-190" cx="510.72" cy="51.16" r="43.19" transform="matrix(0.92, -0.38, 0.38, 0.92, 19.3, 199.34)"/><circle class="cls-191" cx="510.72" cy="51.16" r="43.19" transform="matrix(0.92, -0.38, 0.38, 0.92, 19.3, 199.34)"/><circle class="cls-192" cx="510.72" cy="51.16" r="43.19" transform="matrix(0.92, -0.38, 0.38, 0.92, 19.3, 199.34)"/><circle class="cls-193" cx="510.72" cy="51.16" r="43.19" transform="matrix(0.92, -0.38, 0.38, 0.92, 19.3, 199.34)"/><circle class="cls-194" cx="510.72" cy="51.16" r="43.19" transform="matrix(0.92, -0.38, 0.38, 0.92, 19.3, 199.34)"/><circle class="cls-195" cx="510.72" cy="51.16" r="43.19" transform="matrix(0.92, -0.38, 0.38, 0.92, 19.3, 199.34)"/><circle class="cls-196" cx="510.72" cy="51.16" r="43.19" transform="matrix(0.92, -0.38, 0.38, 0.92, 19.3, 199.34)"/><circle class="cls-197" cx="510.72" cy="51.16" r="43.19" transform="matrix(0.92, -0.38, 0.38, 0.92, 19.3, 199.34)"/><circle class="cls-198" cx="510.72" cy="51.16" r="43.19" transform="matrix(0.92, -0.38, 0.38, 0.92, 19.3, 199.34)"/><circle class="cls-199" cx="510.72" cy="51.16" r="43.19" transform="matrix(0.92, -0.38, 0.38, 0.92, 19.3, 199.34)"/><circle class="cls-200" cx="510.72" cy="51.16" r="43.19" transform="matrix(0.92, -0.38, 0.38, 0.92, 19.3, 199.34)"/><circle class="cls-201" cx="510.72" cy="51.16" r="43.19" transform="matrix(0.92, -0.38, 0.38, 0.92, 19.3, 199.34)"/><circle class="cls-202" cx="510.72" cy="51.16" r="43.19" transform="matrix(0.92, -0.38, 0.38, 0.92, 19.3, 199.34)"/><circle class="cls-203" cx="510.72" cy="51.16" r="43.19" transform="matrix(0.92, -0.38, 0.38, 0.92, 19.3, 199.34)"/><circle class="cls-204" cx="510.72" cy="51.16" r="43.19" transform="matrix(0.92, -0.38, 0.38, 0.92, 19.3, 199.34)"/><circle class="cls-205" cx="510.72" cy="51.16" r="43.19" transform="matrix(0.92, -0.38, 0.38, 0.92, 19.3, 199.34)"/><circle class="cls-206" cx="510.72" cy="51.16" r="43.19" transform="matrix(0.92, -0.38, 0.38, 0.92, 19.3, 199.34)"/><circle class="cls-207" cx="510.72" cy="51.16" r="43.19" transform="matrix(0.92, -0.38, 0.38, 0.92, 19.3, 199.34)"/><circle class="cls-208" cx="510.72" cy="51.16" r="43.19" transform="matrix(0.92, -0.38, 0.38, 0.92, 19.3, 199.34)"/><circle class="cls-209" cx="510.72" cy="51.16" r="43.19" transform="matrix(0.92, -0.38, 0.38, 0.92, 19.3, 199.34)"/><circle class="cls-210" cx="510.72" cy="51.16" r="43.19" transform="matrix(0.92, -0.38, 0.38, 0.92, 19.3, 199.34)"/><circle class="cls-211" cx="510.72" cy="51.16" r="43.19" transform="matrix(0.92, -0.38, 0.38, 0.92, 19.3, 199.34)"/><circle class="cls-212" cx="510.72" cy="51.16" r="43.19" transform="matrix(0.92, -0.38, 0.38, 0.92, 19.3, 199.34)"/><circle class="cls-213" cx="510.72" cy="51.16" r="43.19" transform="matrix(0.92, -0.38, 0.38, 0.92, 19.3, 199.34)"/><circle class="cls-214" cx="510.72" cy="51.16" r="43.19" transform="matrix(0.92, -0.38, 0.38, 0.92, 19.3, 199.34)"/><circle class="cls-215" cx="510.72" cy="51.16" r="43.19" transform="matrix(0.92, -0.38, 0.38, 0.92, 19.3, 199.34)"/><circle class="cls-216" cx="510.72" cy="51.16" r="43.19" transform="matrix(0.92, -0.38, 0.38, 0.92, 19.3, 199.34)"/><circle class="cls-217" cx="510.72" cy="51.16" r="43.19" transform="matrix(0.92, -0.38, 0.38, 0.92, 19.3, 199.34)"/><circle class="cls-217" cx="510.72" cy="51.16" r="43.19" transform="matrix(0.92, -0.38, 0.38, 0.92, 19.3, 199.34)"/><circle class="cls-218" cx="510.72" cy="51.16" r="43.19" transform="matrix(0.92, -0.38, 0.38, 0.92, 19.3, 199.34)"/><circle class="cls-219" cx="510.72" cy="51.16" r="43.19" transform="matrix(0.92, -0.38, 0.38, 0.92, 19.3, 199.34)"/><circle class="cls-220" cx="510.72" cy="51.16" r="43.19" transform="matrix(0.92, -0.38, 0.38, 0.92, 19.3, 199.34)"/><circle class="cls-221" cx="510.72" cy="51.16" r="43.19" transform="matrix(0.92, -0.38, 0.38, 0.92, 19.3, 199.34)"/><circle class="cls-222" cx="510.72" cy="51.16" r="43.19" transform="matrix(0.92, -0.38, 0.38, 0.92, 19.3, 199.34)"/><circle class="cls-223" cx="510.72" cy="51.16" r="43.19" transform="matrix(0.92, -0.38, 0.38, 0.92, 19.3, 199.34)"/><circle class="cls-224" cx="510.72" cy="51.16" r="43.19" transform="matrix(0.92, -0.38, 0.38, 0.92, 19.3, 199.34)"/><circle class="cls-225" cx="510.72" cy="51.16" r="43.19" transform="matrix(0.92, -0.38, 0.38, 0.92, 19.3, 199.34)"/><circle class="cls-226" cx="510.72" cy="51.16" r="43.19" transform="matrix(0.92, -0.38, 0.38, 0.92, 19.3, 199.34)"/><circle class="cls-227" cx="510.72" cy="51.16" r="43.19" transform="matrix(0.92, -0.38, 0.38, 0.92, 19.3, 199.34)"/><circle class="cls-228" cx="510.72" cy="51.16" r="43.19" transform="matrix(0.92, -0.38, 0.38, 0.92, 19.3, 199.34)"/><circle class="cls-229" cx="510.72" cy="51.16" r="43.19" transform="matrix(0.92, -0.38, 0.38, 0.92, 19.3, 199.34)"/><circle class="cls-230" cx="510.72" cy="51.16" r="43.19" transform="matrix(0.92, -0.38, 0.38, 0.92, 19.3, 199.34)"/><circle class="cls-231" cx="510.72" cy="51.16" r="43.19" transform="matrix(0.92, -0.38, 0.38, 0.92, 19.3, 199.34)"/><circle class="cls-232" cx="510.72" cy="51.16" r="43.19" transform="matrix(0.92, -0.38, 0.38, 0.92, 19.3, 199.34)"/><circle class="cls-233" cx="510.72" cy="51.16" r="43.19" transform="matrix(0.92, -0.38, 0.38, 0.92, 19.3, 199.34)"/><circle class="cls-234" cx="510.72" cy="51.16" r="43.19" transform="matrix(0.92, -0.38, 0.38, 0.92, 19.3, 199.34)"/><circle class="cls-235" cx="510.72" cy="51.16" r="43.19" transform="matrix(0.92, -0.38, 0.38, 0.92, 19.3, 199.34)"/><circle class="cls-236" cx="510.72" cy="51.16" r="43.19" transform="matrix(0.92, -0.38, 0.38, 0.92, 19.3, 199.34)"/><circle class="cls-237" cx="510.72" cy="51.16" r="43.19" transform="matrix(0.92, -0.38, 0.38, 0.92, 19.3, 199.34)"/><circle class="cls-238" cx="510.72" cy="51.16" r="43.19" transform="matrix(0.92, -0.38, 0.38, 0.92, 19.3, 199.34)"/><circle class="cls-239" cx="510.72" cy="51.16" r="43.19" transform="matrix(0.92, -0.38, 0.38, 0.92, 19.3, 199.34)"/><circle class="cls-240" cx="510.72" cy="51.16" r="43.19" transform="matrix(0.92, -0.38, 0.38, 0.92, 19.3, 199.34)"/><circle class="cls-241" cx="510.72" cy="51.16" r="43.19" transform="matrix(0.92, -0.38, 0.38, 0.92, 19.3, 199.34)"/><circle class="cls-242" cx="510.72" cy="51.16" r="43.19" transform="matrix(0.92, -0.38, 0.38, 0.92, 19.3, 199.34)"/><circle class="cls-243" cx="510.72" cy="51.16" r="43.19" transform="matrix(0.92, -0.38, 0.38, 0.92, 19.3, 199.34)"/><circle class="cls-244" cx="510.72" cy="51.16" r="43.19" transform="matrix(0.92, -0.38, 0.38, 0.92, 19.3, 199.34)"/><circle class="cls-245" cx="510.72" cy="51.16" r="43.19" transform="matrix(0.92, -0.38, 0.38, 0.92, 19.3, 199.34)"/><circle class="cls-246" cx="510.72" cy="51.16" r="43.19" transform="matrix(0.92, -0.38, 0.38, 0.92, 19.3, 199.34)"/><circle class="cls-246" cx="510.72" cy="51.16" r="43.19" transform="matrix(0.92, -0.38, 0.38, 0.92, 19.3, 199.34)"/><circle class="cls-245" cx="510.72" cy="51.16" r="41.88" transform="translate(16.12 188.35) rotate(-21.22)"/><circle class="cls-244" cx="510.72" cy="51.16" r="40.56"/><circle class="cls-243" cx="510.72" cy="51.16" r="39.24" transform="translate(383.51 548.43) rotate(-81.37)"/><circle class="cls-242" cx="510.72" cy="51.16" r="37.92" transform="translate(378.41 547.09) rotate(-80.78)"/><circle class="cls-241" cx="510.72" cy="51.16" r="36.6" transform="translate(378.41 547.09) rotate(-80.78)"/><circle class="cls-240" cx="510.72" cy="51.16" r="35.28" transform="translate(330.54 531.78) rotate(-75.17)"/><circle class="cls-239" cx="510.72" cy="51.16" r="33.96" transform="translate(343.59 536.47) rotate(-76.72)"/><circle class="cls-238" cx="510.72" cy="51.16" r="32.65" transform="translate(343.59 536.47) rotate(-76.72)"/><circle class="cls-236" cx="510.72" cy="51.16" r="31.33" transform="translate(19.3 199.34) rotate(-22.5)"/><circle class="cls-236" cx="510.72" cy="51.16" r="30.01" transform="translate(19.3 199.34) rotate(-22.5)"/><circle class="cls-235" cx="510.72" cy="51.16" r="29.89"/><circle class="cls-234" cx="510.72" cy="51.16" r="29.76" transform="translate(378.41 547.09) rotate(-80.78)"/><circle class="cls-233" cx="510.72" cy="51.16" r="29.64" transform="translate(378.41 547.09) rotate(-80.78)"/><circle class="cls-232" cx="510.72" cy="51.16" r="29.52" transform="translate(343.59 536.47) rotate(-76.72)"/><circle class="cls-231" cx="510.72" cy="51.16" r="29.4" transform="translate(19.3 199.34) rotate(-22.5)"/><circle class="cls-230" cx="510.72" cy="51.16" r="29.27" transform="translate(19.3 199.34) rotate(-22.5)"/><circle class="cls-229" cx="510.72" cy="51.16" r="29.15" transform="translate(378.41 547.09) rotate(-80.78)"/><circle class="cls-228" cx="510.72" cy="51.16" r="29.03" transform="translate(378.41 547.09) rotate(-80.78)"/><circle class="cls-227" cx="510.72" cy="51.16" r="28.91" transform="translate(343.59 536.47) rotate(-76.72)"/><circle class="cls-226" cx="510.72" cy="51.16" r="28.78" transform="translate(16.22 188.72) rotate(-21.27)"/><circle class="cls-225" cx="510.72" cy="51.16" r="28.66" transform="translate(19.3 199.34) rotate(-22.5)"/><circle class="cls-224" cx="510.72" cy="51.16" r="28.54"/><circle class="cls-223" cx="510.72" cy="51.16" r="28.42" transform="translate(378.41 547.09) rotate(-80.78)"/><circle class="cls-222" cx="510.72" cy="51.16" r="28.29" transform="translate(373.38 545.72) rotate(-80.2)"/><circle class="cls-221" cx="510.72" cy="51.16" r="28.17" transform="translate(330.38 531.71) rotate(-75.15)"/><circle class="cls-220" cx="510.72" cy="51.16" r="28.05" transform="translate(19.3 199.34) rotate(-22.5)"/><circle class="cls-219" cx="510.72" cy="51.16" r="27.93" transform="translate(4.45 135.7) rotate(-15.2)"/><circle class="cls-218" cx="510.72" cy="51.16" r="27.8" transform="translate(378.41 547.09) rotate(-80.78)"/><circle class="cls-217" cx="510.72" cy="51.16" r="27.68" transform="translate(383.7 548.47) rotate(-81.39)"/><circle class="cls-217" cx="510.72" cy="51.16" r="27.56" transform="translate(343.59 536.47) rotate(-76.72)"/><circle class="cls-216" cx="510.72" cy="51.16" r="27.44" transform="translate(19.3 199.34) rotate(-22.5)"/><circle class="cls-215" cx="510.72" cy="51.16" r="27.31" transform="translate(19.3 199.34) rotate(-22.5)"/><circle class="cls-214" cx="510.72" cy="51.16" r="27.19" transform="translate(378.41 547.09) rotate(-80.78)"/><circle class="cls-213" cx="510.72" cy="51.16" r="27.07" transform="translate(378.41 547.09) rotate(-80.78)"/><circle class="cls-212" cx="510.72" cy="51.16" r="26.95" transform="translate(343.59 536.47) rotate(-76.72)"/><circle class="cls-211" cx="510.72" cy="51.16" r="26.82" transform="translate(343.59 536.47) rotate(-76.72)"/><circle class="cls-210" cx="510.72" cy="51.16" r="26.7" transform="translate(19.3 199.34) rotate(-22.5)"/><circle class="cls-209" cx="510.72" cy="51.16" r="26.58"/><circle class="cls-208" cx="510.72" cy="51.16" r="26.46" transform="translate(378.41 547.09) rotate(-80.78)"/><circle class="cls-207" cx="510.72" cy="51.16" r="26.33" transform="translate(378.41 547.09) rotate(-80.78)"/><circle class="cls-206" cx="510.72" cy="51.16" r="26.21" transform="translate(343.59 536.47) rotate(-76.72)"/><circle class="cls-205" cx="510.72" cy="51.16" r="26.09" transform="translate(19.3 199.34) rotate(-22.5)"/><circle class="cls-204" cx="510.72" cy="51.16" r="25.97" transform="translate(19.3 199.34) rotate(-22.5)"/><circle class="cls-203" cx="510.72" cy="51.16" r="25.84" transform="translate(378.41 547.09) rotate(-80.78)"/><circle class="cls-202" cx="510.72" cy="51.16" r="25.72" transform="translate(378.41 547.09) rotate(-80.78)"/><circle class="cls-201" cx="510.72" cy="51.16" r="25.6" transform="translate(343.59 536.47) rotate(-76.72)"/><circle class="cls-200" cx="510.72" cy="51.16" r="25.48" transform="translate(16.25 188.82) rotate(-21.28)"/><circle class="cls-199" cx="510.72" cy="51.16" r="25.35" transform="translate(19.3 199.34) rotate(-22.5)"/><circle class="cls-198" cx="510.72" cy="51.16" r="25.23"/><circle class="cls-197" cx="510.72" cy="51.16" r="25.11" transform="translate(378.41 547.09) rotate(-80.78)"/><circle class="cls-196" cx="510.72" cy="51.16" r="24.99" transform="translate(396.94 551.67) rotate(-82.91)"/><circle class="cls-195" cx="510.72" cy="51.16" r="24.86" transform="translate(330.3 531.69) rotate(-75.14)"/><circle class="cls-194" cx="510.72" cy="51.16" r="24.74" transform="translate(19.3 199.34) rotate(-22.5)"/><circle class="cls-193" cx="510.72" cy="51.16" r="24.62" transform="translate(4.43 135.59) rotate(-15.19)"/><circle class="cls-192" cx="510.72" cy="51.16" r="24.5" transform="translate(378.41 547.09) rotate(-80.78)"/><circle class="cls-191" cx="510.72" cy="51.16" r="24.37" transform="translate(383.75 548.49) rotate(-81.4)"/><circle class="cls-190" cx="510.72" cy="51.16" r="24.25" transform="translate(343.59 536.47) rotate(-76.72)"/><circle class="cls-189" cx="510.72" cy="51.16" r="24.13" transform="translate(19.3 199.34) rotate(-22.5)"/><circle class="cls-188" cx="510.72" cy="51.16" r="24.01" transform="translate(19.3 199.34) rotate(-22.5)"/><circle class="cls-187" cx="510.72" cy="51.16" r="23.88"/><circle class="cls-186" cx="510.72" cy="51.16" r="23.76" transform="translate(378.41 547.09) rotate(-80.78)"/><circle class="cls-185" cx="510.72" cy="51.16" r="23.64" transform="translate(343.59 536.47) rotate(-76.72)"/><circle class="cls-184" cx="510.72" cy="51.16" r="23.52" transform="translate(343.59 536.47) rotate(-76.72)"/><circle class="cls-183" cx="510.72" cy="51.16" r="23.39" transform="translate(19.3 199.34) rotate(-22.5)"/><circle class="cls-182" cx="510.72" cy="51.16" r="23.27" transform="translate(19.3 199.34) rotate(-22.5)"/><circle class="cls-181" cx="510.72" cy="51.16" r="23.15" transform="translate(378.41 547.09) rotate(-80.78)"/><circle class="cls-180" cx="510.72" cy="51.16" r="23.03" transform="translate(378.41 547.09) rotate(-80.78)"/><circle class="cls-179" cx="510.72" cy="51.16" r="22.9" transform="translate(343.59 536.47) rotate(-76.72)"/><circle class="cls-178" cx="510.72" cy="51.16" r="22.78" transform="translate(19.3 199.34) rotate(-22.5)"/><circle class="cls-177" cx="510.72" cy="51.16" r="22.66" transform="translate(19.3 199.34) rotate(-22.5)"/><circle class="cls-176" cx="510.72" cy="51.16" r="22.54" transform="translate(378.41 547.09) rotate(-80.78)"/><circle class="cls-175" cx="510.72" cy="51.16" r="22.41" transform="translate(378.41 547.09) rotate(-80.78)"/><circle class="cls-174" cx="510.72" cy="51.16" r="22.29" transform="translate(343.59 536.47) rotate(-76.72)"/><circle class="cls-173" cx="510.72" cy="51.16" r="22.17" transform="translate(339.15 534.92) rotate(-76.19)"/><circle class="cls-172" cx="510.72" cy="51.16" r="22.05" transform="translate(19.3 199.34) rotate(-22.5)"/><circle class="cls-171" cx="510.72" cy="51.16" r="21.92"/><circle class="cls-170" cx="510.72" cy="51.16" r="21.8" transform="translate(378.41 547.09) rotate(-80.78)"/><circle class="cls-169" cx="510.72" cy="51.16" r="21.68" transform="translate(396.88 551.66) rotate(-82.91)"/><circle class="cls-168" cx="510.72" cy="51.16" r="21.56" transform="translate(330.22 531.66) rotate(-75.13)"/><circle class="cls-167" cx="510.72" cy="51.16" r="21.43" transform="translate(19.3 199.34) rotate(-22.5)"/><circle class="cls-166" cx="510.72" cy="51.16" r="21.31" transform="translate(4.42 135.47) rotate(-15.17)"/><circle class="cls-165" cx="510.72" cy="51.16" r="21.19" transform="translate(378.41 547.09) rotate(-80.78)"/><circle class="cls-164" cx="510.72" cy="51.16" r="21.07" transform="matrix(0.15, -0.99, 0.99, 0.15, 383.81, 548.5)"/><circle class="cls-163" cx="510.72" cy="51.16" r="20.94" transform="translate(343.59 536.47) rotate(-76.72)"/><circle class="cls-162" cx="510.72" cy="51.16" r="20.82" transform="translate(19.3 199.34) rotate(-22.5)"/><circle class="cls-161" cx="510.72" cy="51.16" r="20.7" transform="translate(19.3 199.34) rotate(-22.5)"/><circle class="cls-160" cx="510.72" cy="51.16" r="20.58"/><circle class="cls-159" cx="510.72" cy="51.16" r="20.45" transform="translate(378.41 547.09) rotate(-80.78)"/><circle class="cls-158" cx="510.72" cy="51.16" r="20.33" transform="translate(343.59 536.47) rotate(-76.72)"/><circle class="cls-157" cx="510.72" cy="51.16" r="20.21" transform="translate(343.59 536.47) rotate(-76.72)"/><circle class="cls-156" cx="510.72" cy="51.16" r="20.09" transform="translate(19.3 199.34) rotate(-22.5)"/><circle class="cls-155" cx="510.72" cy="51.16" r="19.96" transform="translate(19.3 199.34) rotate(-22.5)"/><circle class="cls-154" cx="510.72" cy="51.16" r="19.84" transform="translate(378.41 547.09) rotate(-80.78)"/><circle class="cls-153" cx="510.72" cy="51.16" r="19.72" transform="translate(378.41 547.09) rotate(-80.78)"/><circle class="cls-152" cx="510.72" cy="51.16" r="19.6" transform="translate(343.59 536.47) rotate(-76.72)"/><circle class="cls-151" cx="510.72" cy="51.16" r="19.47" transform="translate(19.3 199.34) rotate(-22.5)"/><circle class="cls-150" cx="510.72" cy="51.16" r="19.35" transform="translate(19.3 199.34) rotate(-22.5)"/><circle class="cls-149" cx="510.72" cy="51.16" r="19.23"/><circle class="cls-148" cx="510.72" cy="51.16" r="19.11" transform="translate(378.41 547.09) rotate(-80.78)"/><circle class="cls-147" cx="510.72" cy="51.16" r="18.98" transform="translate(343.59 536.47) rotate(-76.72)"/><circle class="cls-146" cx="510.72" cy="51.16" r="18.86" transform="translate(339.2 534.93) rotate(-76.2)"/><circle class="cls-145" cx="510.72" cy="51.16" r="18.74" transform="translate(19.3 199.34) rotate(-22.5)"/><circle class="cls-144" cx="510.72" cy="51.16" r="18.62" transform="translate(16.3 189.02) rotate(-21.3)"/><circle class="cls-143" cx="510.72" cy="51.16" r="18.49" transform="translate(378.41 547.09) rotate(-80.78)"/><circle class="cls-142" cx="510.72" cy="51.16" r="18.37" transform="translate(396.81 551.64) rotate(-82.9)"/><circle class="cls-141" cx="510.72" cy="51.16" r="18.25" transform="matrix(0.26, -0.97, 0.97, 0.26, 330.15, 531.63)"/><circle class="cls-140" cx="510.72" cy="51.16" r="18.13" transform="translate(19.3 199.34) rotate(-22.5)"/><circle class="cls-139" cx="510.72" cy="51.16" r="18" transform="translate(4.4 135.36) rotate(-15.16)"/><circle class="cls-138" cx="510.72" cy="51.16" r="17.88" transform="translate(378.41 547.09) rotate(-80.78)"/><circle class="cls-137" cx="510.72" cy="51.16" r="17.76" transform="translate(383.86 548.52) rotate(-81.41)"/><circle class="cls-136" cx="510.72" cy="51.16" r="17.64" transform="translate(343.59 536.47) rotate(-76.72)"/><circle class="cls-135" cx="510.72" cy="51.16" r="17.51" transform="translate(354.05 539.95) rotate(-77.95)"/><circle class="cls-134" cx="510.72" cy="51.16" r="17.39" transform="translate(19.3 199.34) rotate(-22.5)"/><circle class="cls-133" cx="510.72" cy="51.16" r="17.27"/><circle class="cls-132" cx="510.72" cy="51.16" r="17.15" transform="translate(378.41 547.09) rotate(-80.78)"/><circle class="cls-131" cx="510.72" cy="51.16" r="17.02" transform="translate(378.41 547.09) rotate(-80.78)"/><circle class="cls-130" cx="510.72" cy="51.16" r="16.9" transform="translate(343.59 536.47) rotate(-76.72)"/><circle class="cls-129" cx="510.72" cy="51.16" r="16.78" transform="translate(19.3 199.34) rotate(-22.5)"/><circle class="cls-128" cx="510.72" cy="51.16" r="16.66" transform="translate(19.3 199.34) rotate(-22.5)"/><circle class="cls-247" cx="510.72" cy="51.16" r="16.54" transform="translate(378.41 547.09) rotate(-80.78)"/><circle class="cls-127" cx="510.72" cy="51.16" r="16.41" transform="translate(378.41 547.09) rotate(-80.78)"/><circle class="cls-126" cx="510.72" cy="51.16" r="16.29" transform="translate(343.59 536.47) rotate(-76.72)"/><circle class="cls-125" cx="510.72" cy="51.16" r="16.17" transform="translate(19.3 199.34) rotate(-22.5)"/><circle class="cls-124" cx="510.72" cy="51.16" r="16.05" transform="translate(19.3 199.34) rotate(-22.5)"/><circle class="cls-123" cx="510.72" cy="51.16" r="15.92"/><circle class="cls-122" cx="510.72" cy="51.16" r="15.8" transform="translate(378.41 547.09) rotate(-80.78)"/><circle class="cls-120" cx="510.72" cy="51.16" r="15.68" transform="translate(343.59 536.47) rotate(-76.72)"/><circle class="cls-119" cx="510.72" cy="51.16" r="15.56" transform="translate(339.24 534.95) rotate(-76.2)"/><circle class="cls-118" cx="510.72" cy="51.16" r="15.43" transform="translate(19.3 199.34) rotate(-22.5)"/><circle class="cls-117" cx="510.72" cy="51.16" r="15.31" transform="translate(16.33 189.11) rotate(-21.31)"/><circle class="cls-116" cx="510.72" cy="51.16" r="15.19" transform="translate(378.41 547.09) rotate(-80.78)"/><circle class="cls-115" cx="510.72" cy="51.16" r="15.07" transform="translate(396.75 551.63) rotate(-82.89)"/><circle class="cls-114" cx="510.72" cy="51.16" r="14.94" transform="matrix(0.26, -0.97, 0.97, 0.26, 330.07, 531.6)"/><circle class="cls-113" cx="510.72" cy="51.16" r="14.82" transform="translate(19.3 199.34) rotate(-22.5)"/><circle class="cls-112" cx="510.72" cy="51.16" r="14.7" transform="translate(4.38 135.24) rotate(-15.15)"/><circle class="cls-111" cx="510.72" cy="51.16" r="14.58" transform="matrix(0.16, -0.99, 0.99, 0.16, 378.41, 547.09)"/><circle class="cls-110" cx="510.72" cy="51.16" r="14.45" transform="translate(383.92 548.53) rotate(-81.42)"/><circle class="cls-109" cx="510.72" cy="51.16" r="14.33" transform="translate(343.59 536.47) rotate(-76.72)"/><circle class="cls-108" cx="510.72" cy="51.16" r="14.21" transform="translate(354.15 539.98) rotate(-77.96)"/><circle class="cls-107" cx="510.72" cy="51.16" r="14.09" transform="translate(19.3 199.34) rotate(-22.5)"/><circle class="cls-106" cx="510.72" cy="51.16" r="13.96"/><circle class="cls-105" cx="510.72" cy="51.16" r="13.84" transform="translate(378.41 547.09) rotate(-80.78)"/><circle class="cls-104" cx="510.72" cy="51.16" r="13.72" transform="translate(378.41 547.09) rotate(-80.78)"/><circle class="cls-103" cx="510.72" cy="51.16" r="13.6" transform="translate(343.59 536.47) rotate(-76.72)"/><circle class="cls-102" cx="510.72" cy="51.16" r="13.47" transform="matrix(0.92, -0.38, 0.38, 0.92, 19.3, 199.34)"/><circle class="cls-101" cx="510.72" cy="51.16" r="13.35" transform="translate(19.3 199.34) rotate(-22.5)"/><circle class="cls-100" cx="510.72" cy="51.16" r="13.23" transform="translate(378.41 547.09) rotate(-80.78)"/><circle class="cls-99" cx="510.72" cy="51.16" r="13.11" transform="translate(378.41 547.09) rotate(-80.78)"/><circle class="cls-98" cx="510.72" cy="51.16" r="12.98" transform="translate(343.59 536.47) rotate(-76.72)"/><circle class="cls-97" cx="510.72" cy="51.16" r="12.86" transform="translate(19.3 199.34) rotate(-22.5)"/><circle class="cls-96" cx="510.72" cy="51.16" r="12.74" transform="translate(19.3 199.34) rotate(-22.5)"/><circle class="cls-95" cx="510.72" cy="51.16" r="12.62"/><circle class="cls-94" cx="510.72" cy="51.16" r="12.49" transform="translate(378.41 547.09) rotate(-80.78)"/><circle class="cls-93" cx="510.72" cy="51.16" r="12.37" transform="translate(378.41 547.09) rotate(-80.78)"/><circle class="cls-92" cx="510.72" cy="51.16" r="12.25" transform="translate(339.28 534.96) rotate(-76.21)"/><circle class="cls-91" cx="510.72" cy="51.16" r="12.13" transform="translate(19.3 199.34) rotate(-22.5)"/><circle class="cls-90" cx="510.72" cy="51.16" r="12" transform="translate(16.36 189.2) rotate(-21.32)"/><circle class="cls-89" cx="510.72" cy="51.16" r="11.88" transform="translate(378.41 547.09) rotate(-80.78)"/><circle class="cls-88" cx="510.72" cy="51.16" r="11.76" transform="translate(396.69 551.61) rotate(-82.88)"/><circle class="cls-87" cx="510.72" cy="51.16" r="11.64" transform="translate(329.99 531.57) rotate(-75.1)"/><circle class="cls-86" cx="510.72" cy="51.16" r="11.51" transform="translate(19.3 199.34) rotate(-22.5)"/><circle class="cls-85" cx="510.72" cy="51.16" r="11.39" transform="translate(4.36 135.13) rotate(-15.14)"/><circle class="cls-84" cx="510.72" cy="51.16" r="11.27"/><circle class="cls-83" cx="510.72" cy="51.16" r="11.15" transform="translate(383.97 548.54) rotate(-81.42)"/><circle class="cls-82" cx="510.72" cy="51.16" r="11.02" transform="translate(343.59 536.47) rotate(-76.72)"/><circle class="cls-81" cx="510.72" cy="51.16" r="10.9" transform="translate(354.26 540.01) rotate(-77.97)"/><circle class="cls-80" cx="510.72" cy="51.16" r="10.78" transform="translate(19.3 199.34) rotate(-22.5)"/><circle class="cls-79" cx="510.72" cy="51.16" r="10.66" transform="translate(19.3 199.34) rotate(-22.5)"/><circle class="cls-78" cx="510.72" cy="51.16" r="10.53" transform="translate(378.41 547.09) rotate(-80.78)"/><circle class="cls-77" cx="510.72" cy="51.16" r="10.41" transform="translate(378.41 547.09) rotate(-80.78)"/><circle class="cls-76" cx="510.72" cy="51.16" r="10.29" transform="translate(343.59 536.47) rotate(-76.72)"/><circle class="cls-75" cx="510.72" cy="51.16" r="10.17" transform="translate(19.3 199.34) rotate(-22.5)"/><circle class="cls-74" cx="510.72" cy="51.16" r="10.04" transform="translate(19.3 199.34) rotate(-22.5)"/><circle class="cls-73" cx="510.72" cy="51.16" r="9.92" transform="translate(378.41 547.09) rotate(-80.78)"/><circle class="cls-72" cx="510.72" cy="51.16" r="9.8" transform="translate(378.41 547.09) rotate(-80.78)"/><circle class="cls-71" cx="510.72" cy="51.16" r="9.68" transform="translate(343.59 536.47) rotate(-76.72)"/><circle class="cls-70" cx="510.72" cy="51.16" r="9.55" transform="translate(343.59 536.47) rotate(-76.72)"/><circle class="cls-69" cx="510.72" cy="51.16" r="9.43" transform="translate(19.3 199.34) rotate(-22.5)"/><circle class="cls-68" cx="510.72" cy="51.16" r="9.31"/><circle class="cls-67" cx="510.72" cy="51.16" r="9.19" transform="translate(378.41 547.09) rotate(-80.78)"/><circle class="cls-66" cx="510.72" cy="51.16" r="9.06" transform="matrix(0.16, -0.99, 0.99, 0.16, 378.41, 547.09)"/><circle class="cls-65" cx="510.72" cy="51.16" r="8.94" transform="translate(339.33 534.98) rotate(-76.21)"/><circle class="cls-64" cx="510.72" cy="51.16" r="8.82" transform="translate(19.3 199.34) rotate(-22.5)"/><circle class="cls-63" cx="510.72" cy="51.16" r="8.7" transform="translate(16.38 189.3) rotate(-21.33)"/><circle class="cls-62" cx="510.72" cy="51.16" r="8.57" transform="translate(378.41 547.09) rotate(-80.78)"/><circle class="cls-61" cx="510.72" cy="51.16" r="8.45" transform="translate(396.62 551.6) rotate(-82.88)"/><circle class="cls-60" cx="510.72" cy="51.16" r="8.33" transform="translate(329.91 531.54) rotate(-75.09)"/><circle class="cls-59" cx="510.72" cy="51.16" r="8.21" transform="translate(19.3 199.34) rotate(-22.5)"/><circle class="cls-58" cx="510.72" cy="51.16" r="8.08" transform="translate(4.34 135.01) rotate(-15.12)"/><circle class="cls-57" cx="510.72" cy="51.16" r="7.96"/><circle class="cls-56" cx="510.72" cy="51.16" r="7.84" transform="translate(384.03 548.56) rotate(-81.43)"/><circle class="cls-55" cx="510.72" cy="51.16" r="7.72" transform="translate(343.59 536.47) rotate(-76.72)"/><circle class="cls-54" cx="510.72" cy="51.16" r="7.59" transform="translate(354.36 540.04) rotate(-77.98)"/><circle class="cls-53" cx="510.72" cy="51.16" r="7.47" transform="translate(19.3 199.34) rotate(-22.5)"/><circle class="cls-52" cx="510.72" cy="51.16" r="7.35" transform="translate(19.3 199.34) rotate(-22.5)"/><path class="cls-51" d="M518,51.16a7.23,7.23,0,1,1-7.23-7.23A7.23,7.23,0,0,1,518,51.16Z"/><path class="cls-50" d="M517.83,51.16a7.11,7.11,0,1,1-7.11-7.1A7.1,7.1,0,0,1,517.83,51.16Z"/><path class="cls-49" d="M517.71,51.16a7,7,0,1,1-7-7A7,7,0,0,1,517.71,51.16Z"/><path class="cls-48" d="M517.58,51.16a6.86,6.86,0,1,1-6.86-6.86A6.86,6.86,0,0,1,517.58,51.16Z"/><path class="cls-47" d="M517.46,51.16a6.74,6.74,0,1,1-6.74-6.74A6.74,6.74,0,0,1,517.46,51.16Z"/><path class="cls-46" d="M517.34,51.16a6.62,6.62,0,1,1-6.62-6.61A6.61,6.61,0,0,1,517.34,51.16Z"/><path class="cls-45" d="M517.22,51.16a6.5,6.5,0,1,1-6.5-6.49A6.49,6.49,0,0,1,517.22,51.16Z"/><path class="cls-44" d="M517.09,51.16a6.37,6.37,0,1,1-6.37-6.37A6.37,6.37,0,0,1,517.09,51.16Z"/><path class="cls-43" d="M517,51.16a6.25,6.25,0,1,1-6.25-6.25A6.25,6.25,0,0,1,517,51.16Z"/><path class="cls-42" d="M516.85,51.16A6.13,6.13,0,1,1,510.72,45,6.12,6.12,0,0,1,516.85,51.16Z"/><path class="cls-41" d="M516.73,51.16a6,6,0,1,1-6-6A6,6,0,0,1,516.73,51.16Z"/><path class="cls-40" d="M516.6,51.16a5.88,5.88,0,1,1-5.88-5.88A5.88,5.88,0,0,1,516.6,51.16Z"/><path class="cls-39" d="M516.48,51.16a5.76,5.76,0,1,1-5.76-5.76A5.76,5.76,0,0,1,516.48,51.16Z"/><path class="cls-38" d="M516.36,51.16a5.64,5.64,0,1,1-5.64-5.63A5.63,5.63,0,0,1,516.36,51.16Z"/><path class="cls-37" d="M516.24,51.16a5.52,5.52,0,1,1-5.52-5.51A5.52,5.52,0,0,1,516.24,51.16Z"/><path class="cls-36" d="M516.11,51.16a5.39,5.39,0,1,1-5.39-5.39A5.39,5.39,0,0,1,516.11,51.16Z"/><path class="cls-35" d="M516,51.16a5.27,5.27,0,1,1-5.27-5.27A5.27,5.27,0,0,1,516,51.16Z"/><path class="cls-34" d="M515.87,51.16A5.15,5.15,0,1,1,510.72,46,5.16,5.16,0,0,1,515.87,51.16Z"/><path class="cls-33" d="M515.75,51.16a5,5,0,1,1-5-5A5,5,0,0,1,515.75,51.16Z"/><path class="cls-32" d="M515.62,51.16a4.9,4.9,0,1,1-4.9-4.9A4.9,4.9,0,0,1,515.62,51.16Z"/><path class="cls-31" d="M515.5,51.16a4.78,4.78,0,1,1-4.78-4.78A4.78,4.78,0,0,1,515.5,51.16Z"/><circle class="cls-30" cx="510.72" cy="51.16" r="4.65"/><path class="cls-29" d="M515.26,51.16a4.54,4.54,0,1,1-4.54-4.53A4.53,4.53,0,0,1,515.26,51.16Z"/><path class="cls-28" d="M515.13,51.16a4.41,4.41,0,1,1-4.41-4.41A4.4,4.4,0,0,1,515.13,51.16Z"/><path class="cls-27" d="M515,51.16a4.29,4.29,0,1,1-4.29-4.29A4.29,4.29,0,0,1,515,51.16Z"/><path class="cls-26" d="M514.89,51.16A4.17,4.17,0,1,1,510.72,47,4.17,4.17,0,0,1,514.89,51.16Z"/><path class="cls-25" d="M514.77,51.16a4,4,0,1,1-4-4A4,4,0,0,1,514.77,51.16Z"/><path class="cls-24" d="M514.64,51.16a3.92,3.92,0,1,1-3.92-3.92A3.91,3.91,0,0,1,514.64,51.16Z"/><path class="cls-23" d="M514.52,51.16a3.8,3.8,0,1,1-3.8-3.8A3.8,3.8,0,0,1,514.52,51.16Z"/><path class="cls-22" d="M514.4,51.16a3.68,3.68,0,1,1-3.68-3.67A3.68,3.68,0,0,1,514.4,51.16Z"/><path class="cls-21" d="M514.28,51.16a3.56,3.56,0,1,1-3.56-3.55A3.55,3.55,0,0,1,514.28,51.16Z"/><path class="cls-20" d="M514.15,51.16a3.43,3.43,0,1,1-3.43-3.43A3.43,3.43,0,0,1,514.15,51.16Z"/><circle class="cls-19" cx="510.72" cy="51.16" r="3.31"/><path class="cls-18" d="M513.91,51.16A3.19,3.19,0,1,1,510.72,48,3.19,3.19,0,0,1,513.91,51.16Z"/><path class="cls-17" d="M513.79,51.16a3.07,3.07,0,1,1-3.07-3.06A3.07,3.07,0,0,1,513.79,51.16Z"/><path class="cls-16" d="M513.66,51.16a2.94,2.94,0,1,1-2.94-2.94A2.94,2.94,0,0,1,513.66,51.16Z"/><path class="cls-15" d="M513.54,51.16a2.82,2.82,0,1,1-2.82-2.82A2.82,2.82,0,0,1,513.54,51.16Z"/><path class="cls-14" d="M513.42,51.16a2.7,2.7,0,1,1-2.7-2.69A2.7,2.7,0,0,1,513.42,51.16Z"/><path class="cls-13" d="M513.3,51.16a2.58,2.58,0,1,1-2.58-2.57A2.58,2.58,0,0,1,513.3,51.16Z"/><path class="cls-12" d="M513.17,51.16a2.45,2.45,0,1,1-2.45-2.45A2.45,2.45,0,0,1,513.17,51.16Z"/><path class="cls-11" d="M513.05,51.16a2.33,2.33,0,1,1-2.33-2.33A2.33,2.33,0,0,1,513.05,51.16Z"/><path class="cls-10" d="M512.93,51.16a2.21,2.21,0,1,1-2.21-2.2A2.21,2.21,0,0,1,512.93,51.16Z"/><path class="cls-9" d="M512.81,51.16a2.09,2.09,0,1,1-2.09-2.08A2.09,2.09,0,0,1,512.81,51.16Z"/><path class="cls-8" d="M512.68,51.16a2,2,0,1,1-2-2A2,2,0,0,1,512.68,51.16Z"/><path class="cls-248" d="M512.56,51.16a1.84,1.84,0,1,1-1.84-1.84A1.84,1.84,0,0,1,512.56,51.16Z"/><path class="cls-7" d="M512.44,51.16a1.72,1.72,0,1,1-1.72-1.71A1.72,1.72,0,0,1,512.44,51.16Z"/><path class="cls-6" d="M512.32,51.16a1.6,1.6,0,1,1-1.6-1.59A1.6,1.6,0,0,1,512.32,51.16Z"/><path class="cls-249" d="M512.19,51.16a1.47,1.47,0,1,1-1.47-1.47A1.47,1.47,0,0,1,512.19,51.16Z"/><circle class="cls-250" cx="510.72" cy="51.16" r="1.35"/><path class="cls-251" d="M512,51.16a1.23,1.23,0,1,1-1.23-1.22A1.23,1.23,0,0,1,512,51.16Z"/><path class="cls-252" d="M511.83,51.16a1.11,1.11,0,1,1-1.11-1.1A1.11,1.11,0,0,1,511.83,51.16Z"/><path class="cls-253" d="M511.7,51.16a1,1,0,1,1-1-1A1,1,0,0,1,511.7,51.16Z"/><path class="cls-254" d="M511.58,51.16a.86.86,0,1,1-.86-.86A.86.86,0,0,1,511.58,51.16Z"/><path class="cls-255" d="M511.46,51.16a.74.74,0,1,1-1.47,0,.74.74,0,0,1,1.47,0Z"/><path class="cls-256" d="M511.34,51.16a.62.62,0,1,1-.62-.61A.61.61,0,0,1,511.34,51.16Z"/><path class="cls-257" d="M511.21,51.16a.49.49,0,1,1-.49-.49A.49.49,0,0,1,511.21,51.16Z"/><path class="cls-258" d="M511.09,51.16a.37.37,0,1,1-.37-.37A.37.37,0,0,1,511.09,51.16Z"/><path class="cls-259" d="M511,51.16a.25.25,0,1,1-.49,0,.25.25,0,0,1,.49,0Z"/><path class="cls-260" d="M510.85,51.16a.12.12,0,0,1-.13.12.12.12,0,0,1,0-.24A.12.12,0,0,1,510.85,51.16Z"/></g><path class="cls-261" d="M510.6,95.3l-.38-.69c-1.73-3.17-7.19-14.2-7.07-26.89a46,46,0,0,1-19,11.14l-.86.25.2-.87c.52-2.28,4.79-12.8,11.4-18.87-4.37-.23-16.2-1-27.62-7.62l-.79-.45.79-.46a61.09,61.09,0,0,1,27.67-7.12c-8.77-10-11.14-16.3-11.58-19.81l-.1-.81.78.25c.19.06.5.13.89.21,3,.67,10.74,2.39,18.27,11.45,0-.41.08-.9.13-1.44.46-5.2,1.42-16,6.89-25.86l.43-.77.47.75.24.37c1.39,2.09,5.55,8.38,6.75,27.46l1-1c3.19-3.2,9.12-9.15,18.09-11.07l.78-.16-.16.78C537.09,27.65,534.57,36.45,527,43l1.8.24c1.75.24,4.48.65,7.54,1.28,7.89,1.61,13.9,3.75,17.86,6.34l.76.51-.82.4-.65.33a57.43,57.43,0,0,1-26.7,6.51c2.64,2.77,9.3,9.86,11.39,19.64l.17.77-.77-.15c-1.78-.33-12.46-3.73-19.23-11-.2,4.88-.85,18.63-7.27,26.85Zm-6.3-30.43-.07,1.52c-.5,12.16,4.45,23,6.52,27,5.87-8.17,6.4-21.42,6.58-25.86,0-.41,0-.77,0-1l.07-1.33.85,1c5.79,6.92,15.6,10.57,18.69,11.47-2.24-9.19-8.6-15.86-11-18.41-.3-.33-.55-.58-.73-.79l-.79-.88h1.66a56.61,56.61,0,0,0,26.78-6.32c-9.19-5.51-25.85-7.2-27.18-7.33h-.08a.52.52,0,0,1-.46-.38l-.1-.35.29-.21a.3.3,0,0,1,.18-.08c7.42-6,10.18-14.23,11.13-18.23-8.22,2-13.75,7.57-16.77,10.59-.77.78-1.39,1.39-1.88,1.8l-.8.65-.06-1c-1-18.67-4.86-25.29-6.41-27.68-5,9.44-5.91,19.68-6.35,24.67-.11,1.26-.19,2.17-.3,2.73l-.23,1.11-.7-.89c-7.52-9.6-15.46-11.36-18.44-12l-.18,0c.67,3.54,3.3,9.53,11.56,18.89.19.21.33.36.41.46l.73.86h-1.13a60.69,60.69,0,0,0-27.49,6.56c11.32,6.24,22.88,6.84,26.74,7l.91,0,1.29.11-1,.82c-6.3,5.16-10.61,14.74-11.77,18.25A43.49,43.49,0,0,0,503.31,66Z"/><path class="cls-262" d="M510.62,57.62c-.84,4.15-3.37,6.28-6.57,7.82-1.84-5.08,1.86-9.51,1.81-9.47-4.44,3.78-7.8,2.66-9.4,2.72a10.69,10.69,0,0,1,7.37-7.41c-5.56-.83-7.7-5.81-7.44-6.78,5.41-1.26,7.37.56,9.74,2.34-3.32-3-2.88-7.47-2.52-10,6.16,1.65,7,8,7,8h-.06a9.13,9.13,0,0,1,6.63-7.82c.36,2.49,1.13,6.75-2.19,9.72,2.37-1.78,4.28-4,10.13-3.2-.23,1-2.27,6.81-7.86,7.64a10.27,10.27,0,0,1,7.57,6.58c-1.77.58-5.15,1.87-9.61-1.92,0,0,3.39,2.25,2.2,9.8-4.66-2.22-6.08-4-6.92-8.12"/><path d="M517.58,66.12l-.31-.15c-4.15-2-5.82-3.6-6.75-6.95a11.2,11.2,0,0,1-6.36,6.66l-.26.12-.1-.27a10.16,10.16,0,0,1,1-8.41A10.34,10.34,0,0,1,497.43,59a8.55,8.55,0,0,0-1,0h-.36l.1-.35a10.93,10.93,0,0,1,6.6-7.27,9.52,9.52,0,0,1-5.66-4,4.82,4.82,0,0,1-1-2.89l0-.15.16,0c4.16-1,6.34-.15,8.19,1.08-1.94-3.09-1.4-6.89-1.17-8.48l0-.29.29.07a9.89,9.89,0,0,1,6.83,6.93,9.16,9.16,0,0,1,6.57-6.69l.28-.08.08.59c.3,2,.75,5.16-.82,7.84,1.83-1.34,4.06-2.43,8.5-1.84l.28,0-.06.28c-.37,1.66-2.41,6.32-7,7.61A10.66,10.66,0,0,1,525,57.76l.1.26-.41.14a8.57,8.57,0,0,1-8.06-.8c.85,1.49,1.65,4.13,1,8.42ZM510.81,58c.83,3.75,2.23,5.35,6.36,7.36.83-5.85-1.18-8.32-1.89-9l-.27-.22-.16-.14.21-.38.21.07.08.06h0c4.13,3.52,7.33,2.55,9.09,2a10,10,0,0,0-7.24-6.16.25.25,0,0,1-.24-.26v-.23l.22,0c5.22-.77,7.17-5.9,7.57-7.16-4.86-.58-6.88,1-8.83,2.56l-.81.62-.33-.4c3.08-2.75,2.52-6.63,2.15-9.19h0a8.88,8.88,0,0,0-6.13,7.25l0,.21,0,.29h-.65l0-.28a1.25,1.25,0,0,1,0-.2c-.23-1.17-1.46-6-6.44-7.5-.41,3.06-.44,6.82,2.47,9.42L506,47l-.4-.3c-2.2-1.67-4.1-3.11-8.94-2a5.25,5.25,0,0,0,1,2.32,9,9,0,0,0,6.28,4l.21,0,0,.21a.27.27,0,0,1-.24.28,10.38,10.38,0,0,0-7,6.89c.2,0,.42,0,.65,0a10,10,0,0,0,8.22-2.69l.18-.16.17.16a.26.26,0,0,1,0,.38c-.56.74-3.24,4.58-1.84,8.92,3.46-1.73,5.31-3.88,6.07-7.09,0-.11,0-.21-.07-.32l.15,0v-.07l.18,0,.18,0v.07l.15,0C510.85,57.78,510.83,57.89,510.81,58Z"/><path class="cls-263" d="M507.48,42.32c1.07,2.11,1.64,4,1.27,4.15s-1.52-1.37-2.59-3.48-1.63-4-1.27-4.14S506.42,40.22,507.48,42.32Z"/><path class="cls-264" d="M508.69,46.74c-.3,0-.67-.31-1.18-1a18,18,0,0,1-1.58-2.63,19.58,19.58,0,0,1-1.19-2.83c-.3-1-.29-1.5,0-1.66s.74.12,1.36,1A20.95,20.95,0,0,1,508.91,45c.3,1,.29,1.49,0,1.66A.39.39,0,0,1,508.69,46.74ZM505,39.14a11.16,11.16,0,0,0,1.36,3.73,11,11,0,0,0,2.21,3.3,11.16,11.16,0,0,0-1.36-3.73A11.14,11.14,0,0,0,505,39.14Z"/><path class="cls-263" d="M514.89,43.16c-1,2.13-2.13,3.72-2.5,3.54s.15-2,1.16-4.17,2.14-3.72,2.51-3.54S515.9,41,514.89,43.16Z"/><path class="cls-264" d="M512.43,47l-.15,0c-.86-.41.71-3.84,1-4.53s2-4.07,2.85-3.66c.33.16.35.66.07,1.66a18.94,18.94,0,0,1-1.11,2.86h0C514.82,43.92,513.32,47,512.43,47Zm3.49-7.69a11,11,0,0,0-2.13,3.36,11,11,0,0,0-1.26,3.76,11,11,0,0,0,2.13-3.35h0A11.36,11.36,0,0,0,515.92,39.28Z"/><path class="cls-263" d="M519.38,48c-2,1.18-3.86,1.84-4.07,1.49s1.29-1.6,3.33-2.78,3.86-1.84,4.07-1.49S521.42,46.77,519.38,48Z"/><path class="cls-264" d="M515.58,49.8a.5.5,0,0,1-.49-.23c-.48-.83,2.76-2.75,3.42-3.13a18,18,0,0,1,2.76-1.34c1-.36,1.48-.38,1.66-.06.48.83-2.76,2.75-3.42,3.13a18,18,0,0,1-2.76,1.34A3.8,3.8,0,0,1,515.58,49.8Zm6.84-4.47a11.28,11.28,0,0,0-3.65,1.56,11,11,0,0,0-3.17,2.39,11,11,0,0,0,3.65-1.56A11,11,0,0,0,522.42,45.33Z"/><path class="cls-263" d="M518.67,56c-2.09-1.09-3.63-2.27-3.44-2.63s2,.23,4.12,1.32,3.63,2.28,3.44,2.64S520.76,57.05,518.67,56Z"/><path class="cls-264" d="M522.49,57.65a3.93,3.93,0,0,1-1.13-.24,18.84,18.84,0,0,1-2.81-1.22h0c-.68-.35-4-2.15-3.55-3,.17-.33.66-.33,1.66,0a19,19,0,0,1,2.81,1.23c.68.35,4,2.15,3.55,3C522.94,57.57,522.77,57.65,522.49,57.65Zm-3.7-1.93a11.23,11.23,0,0,0,3.7,1.41h0a10.88,10.88,0,0,0-3.27-2.26,11.35,11.35,0,0,0-3.7-1.4h0a10.94,10.94,0,0,0,3.27,2.25Z"/><path class="cls-263" d="M502.65,46.86c2.16,1,3.78,2.16,3.6,2.53s-2.07-.16-4.24-1.19-3.78-2.17-3.6-2.54S500.48,45.83,502.65,46.86Z"/><path class="cls-264" d="M505.91,49.77a4,4,0,0,1-1.1-.2,18.72,18.72,0,0,1-2.91-1.14c-.7-.33-4.14-2-3.73-2.88s3.89.74,4.59,1.07h0a19.66,19.66,0,0,1,2.72,1.54c.86.61,1.17,1,1,1.35C506.4,49.68,506.22,49.77,505.91,49.77Zm-7.21-4A11.44,11.44,0,0,0,502.12,48,11.52,11.52,0,0,0,506,49.25a11.35,11.35,0,0,0-3.42-2.15h0A11.52,11.52,0,0,0,498.7,45.8Z"/><path class="cls-263" d="M502,54.46c2.08-1.2,3.93-1.89,4.13-1.53s-1.31,1.61-3.39,2.81-3.93,1.88-4.13,1.53S499.88,55.66,502,54.46Z"/><path class="cls-264" d="M498.83,57.61a.51.51,0,0,1-.49-.21c-.48-.83,2.82-2.79,3.49-3.17h0c.66-.38,4-2.26,4.49-1.44s-2.82,2.79-3.49,3.18S499.92,57.61,498.83,57.61Zm3.26-2.93h0a11.92,11.92,0,0,0-3.24,2.42,11.28,11.28,0,0,0,3.72-1.59,11.37,11.37,0,0,0,3.23-2.42A11.69,11.69,0,0,0,502.09,54.68Z"/><path class="cls-263" d="M506.15,59.45c1-2.17,2.17-3.79,2.54-3.61s-.17,2.07-1.2,4.24-2.16,3.78-2.53,3.61S505.12,61.61,506.15,59.45Z"/><path class="cls-264" d="M505,64a.33.33,0,0,1-.17,0c-.34-.16-.36-.66-.07-1.68a19.11,19.11,0,0,1,1.14-2.91h0c.33-.69,2-4.14,2.88-3.73s-.74,3.9-1.07,4.59a19.66,19.66,0,0,1-1.54,2.72C505.69,63.63,505.32,64,505,64Zm1.37-4.4h0a11.52,11.52,0,0,0-1.29,3.83A11.66,11.66,0,0,0,507.26,60a11.79,11.79,0,0,0,1.29-3.83A11.44,11.44,0,0,0,506.39,59.56Z"/><path class="cls-263" d="M513.76,60.31c-1.08-2.14-1.67-4-1.3-4.21s1.54,1.4,2.62,3.54,1.67,4,1.31,4.21S514.85,62.45,513.76,60.31Z"/><path class="cls-264" d="M516.34,64.12c-.89,0-2.49-3.05-2.81-3.69h0c-.35-.69-2-4.13-1.19-4.56s2.63,3,3,3.65,2,4.13,1.19,4.56A.29.29,0,0,1,516.34,64.12ZM514,60.19a11.33,11.33,0,0,0,2.25,3.36,11.84,11.84,0,0,0-1.39-3.79,11.62,11.62,0,0,0-2.24-3.36A11.43,11.43,0,0,0,514,60.19Z"/></svg>